<svg width="20" height="16" viewBox="0 0 20 16" fill="none" xmlns="http://www.w3.org/2000/svg">
<path d="M1.66699 10.0835L9.70218 14.1011C9.8115 14.1557 9.86616 14.1831 9.92349 14.1938C9.97427 14.2033 10.0264 14.2033 10.0772 14.1938C10.1345 14.1831 10.1891 14.1557 10.2985 14.1011L18.3337 10.0835M1.66699 5.9168L9.70218 1.89921C9.8115 1.84455 9.86616 1.81722 9.92349 1.80646C9.97427 1.79693 10.0264 1.79693 10.0772 1.80646C10.1345 1.81722 10.1891 1.84455 10.2985 1.89921L18.3337 5.9168L10.2985 9.9344C10.1891 9.98906 10.1345 10.0164 10.0772 10.0271C10.0264 10.0367 9.97427 10.0367 9.92349 10.0271C9.86616 10.0164 9.8115 9.98906 9.70218 9.9344L1.66699 5.9168Z" stroke="#7F56D9" stroke-width="1.66667" stroke-linecap="round" stroke-linejoin="round"/>
</svg>
