<svg xmlns="http://www.w3.org/2000/svg" xmlns:xlink="http://www.w3.org/1999/xlink" width="142" zoomAndPan="magnify" viewBox="0 0 106.5 30.000001" height="40" preserveAspectRatio="xMidYMid meet" version="1.0"><defs><g/><clipPath id="id1"><path d="M 13 19 L 19 19 L 19 21.542969 L 13 21.542969 Z M 13 19 " clip-rule="nonzero"/></clipPath><clipPath id="id2"><path d="M 21 10 L 25.210938 10 L 25.210938 13 L 21 13 Z M 21 10 " clip-rule="nonzero"/></clipPath><clipPath id="id3"><path d="M 6.980469 10 L 11 10 L 11 13 L 6.980469 13 Z M 6.980469 10 " clip-rule="nonzero"/></clipPath><clipPath id="id4"><path d="M 18 5.5 L 21 5.5 L 21 10 L 18 10 Z M 18 5.5 " clip-rule="nonzero"/></clipPath><clipPath id="id5"><path d="M 11 5.5 L 14 5.5 L 14 10 L 11 10 Z M 11 5.5 " clip-rule="nonzero"/></clipPath></defs><g fill="#ffffff" fill-opacity="1"><g transform="translate(28.182404, 18.957857)"><g><path d="M 0.671875 0 L 0.671875 -8.859375 L 4.359375 -8.859375 C 5.359375 -8.859375 6.109375 -8.648438 6.609375 -8.234375 C 7.117188 -7.816406 7.375 -7.273438 7.375 -6.609375 C 7.375 -6.109375 7.21875 -5.6875 6.90625 -5.34375 C 6.601562 -5.007812 6.207031 -4.789062 5.71875 -4.6875 L 5.71875 -4.609375 C 6.082031 -4.597656 6.414062 -4.5 6.71875 -4.3125 C 7.019531 -4.132812 7.257812 -3.890625 7.4375 -3.578125 C 7.625 -3.265625 7.71875 -2.898438 7.71875 -2.484375 C 7.71875 -2.003906 7.597656 -1.578125 7.359375 -1.203125 C 7.117188 -0.828125 6.769531 -0.53125 6.3125 -0.3125 C 5.851562 -0.101562 5.296875 0 4.640625 0 Z M 2.8125 -1.71875 L 4.125 -1.71875 C 4.59375 -1.71875 4.9375 -1.804688 5.15625 -1.984375 C 5.375 -2.160156 5.484375 -2.40625 5.484375 -2.71875 C 5.484375 -3.0625 5.363281 -3.332031 5.125 -3.53125 C 4.894531 -3.726562 4.578125 -3.828125 4.171875 -3.828125 L 2.8125 -3.828125 Z M 2.8125 -5.21875 L 4 -5.21875 C 4.34375 -5.21875 4.628906 -5.300781 4.859375 -5.46875 C 5.085938 -5.644531 5.203125 -5.890625 5.203125 -6.203125 C 5.203125 -6.492188 5.09375 -6.722656 4.875 -6.890625 C 4.664062 -7.066406 4.382812 -7.15625 4.03125 -7.15625 L 2.8125 -7.15625 Z M 2.8125 -5.21875 "/></g></g></g><g fill="#ffffff" fill-opacity="1"><g transform="translate(36.263131, 18.957857)"><g><path d="M 2.578125 0 L 0.28125 0 L 3.265625 -8.859375 L 6.125 -8.859375 L 9.109375 0 L 6.8125 0 L 6.21875 -1.859375 L 3.171875 -1.859375 Z M 3.671875 -3.484375 L 5.71875 -3.484375 L 4.734375 -6.625 L 4.65625 -6.625 Z M 3.671875 -3.484375 "/></g></g></g><g fill="#ffffff" fill-opacity="1"><g transform="translate(45.653196, 18.957857)"><g><path d="M 0.671875 0 L 0.671875 -8.859375 L 2.8125 -8.859375 L 2.8125 -5.109375 L 2.921875 -5.109375 L 5.859375 -8.859375 L 8.375 -8.859375 L 5.234375 -4.90625 L 8.421875 0 L 5.875 0 L 3.671875 -3.484375 L 2.8125 -2.40625 L 2.8125 0 Z M 0.671875 0 "/></g></g></g><g fill="#ffffff" fill-opacity="1"><g transform="translate(54.196291, 18.957857)"><g><path d="M 2.578125 0 L 0.28125 0 L 3.265625 -8.859375 L 6.125 -8.859375 L 9.109375 0 L 6.8125 0 L 6.21875 -1.859375 L 3.171875 -1.859375 Z M 3.671875 -3.484375 L 5.71875 -3.484375 L 4.734375 -6.625 L 4.65625 -6.625 Z M 3.671875 -3.484375 "/></g></g></g><g fill="#ffffff" fill-opacity="1"><g transform="translate(63.586357, 18.957857)"><g><path d="M 8.203125 -8.859375 L 8.203125 0 L 6.390625 0 L 2.859375 -5.109375 L 2.8125 -5.109375 L 2.8125 0 L 0.671875 0 L 0.671875 -8.859375 L 2.515625 -8.859375 L 6 -3.75 L 6.0625 -3.75 L 6.0625 -8.859375 Z M 8.203125 -8.859375 "/></g></g></g><g fill="#ffffff" fill-opacity="1"><g transform="translate(72.457874, 18.957857)"><g><path d="M 2.578125 0 L 0.28125 0 L 3.265625 -8.859375 L 6.125 -8.859375 L 9.109375 0 L 6.8125 0 L 6.21875 -1.859375 L 3.171875 -1.859375 Z M 3.671875 -3.484375 L 5.71875 -3.484375 L 4.734375 -6.625 L 4.65625 -6.625 Z M 3.671875 -3.484375 "/></g></g></g><g fill="#ffffff" fill-opacity="1"><g transform="translate(81.847939, 18.957857)"><g><path d="M 0.640625 0 L 0.640625 -1.21875 L 4.9375 -7.109375 L 0.640625 -7.109375 L 0.640625 -8.859375 L 7.640625 -8.859375 L 7.640625 -7.640625 L 3.34375 -1.734375 L 7.640625 -1.734375 L 7.640625 0 Z M 0.640625 0 "/></g></g></g><g fill="#ffffff" fill-opacity="1"><g transform="translate(90.131766, 18.957857)"><g><path d="M 9.03125 -4.421875 C 9.03125 -3.453125 8.84375 -2.628906 8.46875 -1.953125 C 8.09375 -1.273438 7.582031 -0.757812 6.9375 -0.40625 C 6.300781 -0.0507812 5.585938 0.125 4.796875 0.125 C 4.003906 0.125 3.285156 -0.0507812 2.640625 -0.40625 C 2.003906 -0.757812 1.5 -1.273438 1.125 -1.953125 C 0.757812 -2.628906 0.578125 -3.453125 0.578125 -4.421875 C 0.578125 -5.398438 0.757812 -6.226562 1.125 -6.90625 C 1.5 -7.582031 2.003906 -8.09375 2.640625 -8.4375 C 3.285156 -8.789062 4.003906 -8.96875 4.796875 -8.96875 C 5.585938 -8.96875 6.300781 -8.789062 6.9375 -8.4375 C 7.582031 -8.09375 8.09375 -7.582031 8.46875 -6.90625 C 8.84375 -6.226562 9.03125 -5.398438 9.03125 -4.421875 Z M 6.84375 -4.421875 C 6.84375 -5.296875 6.660156 -5.957031 6.296875 -6.40625 C 5.929688 -6.863281 5.429688 -7.09375 4.796875 -7.09375 C 4.160156 -7.09375 3.660156 -6.863281 3.296875 -6.40625 C 2.929688 -5.957031 2.75 -5.296875 2.75 -4.421875 C 2.75 -3.554688 2.929688 -2.894531 3.296875 -2.4375 C 3.660156 -1.976562 4.160156 -1.75 4.796875 -1.75 C 5.429688 -1.75 5.929688 -1.976562 6.296875 -2.4375 C 6.660156 -2.894531 6.84375 -3.554688 6.84375 -4.421875 Z M 6.84375 -4.421875 "/></g></g></g><g clip-path="url(#id1)"><path fill="#ffd700" d="M 18.09375 20.257812 C 17.582031 19.996094 16.851562 19.847656 16.097656 19.847656 C 14.777344 19.847656 13.449219 20.300781 13.308594 21.167969 C 13.703125 21.417969 14.128906 21.542969 14.59375 21.542969 L 17.597656 21.542969 C 18.0625 21.542969 18.492188 21.417969 18.882812 21.167969 C 18.828125 20.800781 18.5625 20.496094 18.09375 20.257812 Z M 15.648438 21.078125 L 15.027344 21.078125 L 15.027344 20.460938 L 15.648438 20.460938 Z M 17.167969 21.078125 L 16.546875 21.078125 L 16.546875 20.460938 L 17.167969 20.460938 Z M 17.167969 21.078125 " fill-opacity="1" fill-rule="nonzero"/></g><g clip-path="url(#id2)"><path fill="#ffd700" d="M 23.09375 10.585938 C 22.644531 10.519531 22.195312 10.503906 21.742188 10.542969 C 21.742188 10.550781 21.75 10.558594 21.75 10.566406 C 21.765625 10.601562 21.777344 10.636719 21.789062 10.675781 C 21.789062 10.6875 21.800781 10.699219 21.804688 10.710938 C 21.820312 10.765625 21.835938 10.8125 21.847656 10.859375 L 21.851562 10.878906 C 21.863281 10.921875 21.875 10.964844 21.882812 11.011719 L 21.890625 11.054688 C 21.898438 11.09375 21.90625 11.132812 21.910156 11.167969 C 21.910156 11.183594 21.914062 11.195312 21.917969 11.210938 C 21.925781 11.261719 21.929688 11.3125 21.933594 11.363281 C 21.933594 11.367188 21.933594 11.371094 21.933594 11.375 C 21.933594 11.421875 21.941406 11.46875 21.941406 11.519531 C 21.941406 11.53125 21.941406 11.546875 21.941406 11.5625 C 21.941406 11.601562 21.941406 11.640625 21.941406 11.675781 C 21.941406 11.691406 21.941406 11.707031 21.941406 11.722656 C 21.941406 11.773438 21.941406 11.824219 21.933594 11.875 C 22.246094 11.964844 22.5625 12.035156 22.882812 12.078125 C 23.828125 12.207031 24.730469 11.863281 25.207031 11.636719 C 24.816406 11.285156 24.039062 10.714844 23.09375 10.585938 Z M 23.09375 10.585938 " fill-opacity="1" fill-rule="nonzero"/></g><g clip-path="url(#id3)"><path fill="#ffd700" d="M 9.101562 10.585938 C 8.148438 10.714844 7.378906 11.285156 6.984375 11.636719 C 7.460938 11.867188 8.363281 12.207031 9.316406 12.078125 C 9.636719 12.035156 9.953125 11.964844 10.265625 11.875 C 10.265625 11.871094 10.265625 11.863281 10.265625 11.859375 C 10.265625 11.8125 10.257812 11.769531 10.257812 11.726562 C 10.257812 11.707031 10.257812 11.6875 10.257812 11.667969 C 10.257812 11.636719 10.257812 11.601562 10.257812 11.570312 C 10.257812 11.550781 10.257812 11.53125 10.257812 11.511719 C 10.257812 11.472656 10.257812 11.433594 10.261719 11.394531 L 10.261719 11.359375 C 10.265625 11.3125 10.273438 11.261719 10.28125 11.214844 C 10.28125 11.195312 10.285156 11.179688 10.289062 11.160156 C 10.292969 11.128906 10.300781 11.09375 10.304688 11.058594 C 10.308594 11.042969 10.3125 11.023438 10.316406 11.007812 C 10.324219 10.96875 10.335938 10.929688 10.34375 10.890625 L 10.351562 10.859375 C 10.363281 10.808594 10.378906 10.761719 10.394531 10.714844 L 10.410156 10.671875 C 10.421875 10.636719 10.433594 10.601562 10.445312 10.566406 L 10.457031 10.542969 C 10.003906 10.503906 9.550781 10.519531 9.101562 10.585938 Z M 9.101562 10.585938 " fill-opacity="1" fill-rule="nonzero"/></g><g clip-path="url(#id4)"><path fill="#ffd700" d="M 20.488281 9.074219 L 20.769531 5.96875 C 20.789062 5.746094 20.691406 5.609375 20.476562 5.550781 C 20.257812 5.492188 20.105469 5.566406 20.011719 5.769531 L 18.703125 8.648438 L 18.949219 8.648438 C 19.5 8.648438 20.011719 8.792969 20.488281 9.074219 Z M 20.488281 9.074219 " fill-opacity="1" fill-rule="nonzero"/></g><g clip-path="url(#id5)"><path fill="#ffd700" d="M 11.710938 9.074219 C 12.183594 8.792969 12.695312 8.652344 13.246094 8.652344 L 13.492188 8.652344 L 12.1875 5.769531 C 12.09375 5.566406 11.941406 5.496094 11.726562 5.550781 C 11.507812 5.605469 11.410156 5.746094 11.429688 5.964844 Z M 11.710938 9.074219 " fill-opacity="1" fill-rule="nonzero"/></g><path fill="#ffd700" d="M 18.949219 9.265625 L 13.246094 9.265625 C 12.820312 9.265625 12.425781 9.371094 12.054688 9.582031 C 11.6875 9.792969 11.398438 10.082031 11.183594 10.449219 C 10.976562 10.808594 10.871094 11.199219 10.875 11.613281 L 10.875 11.621094 C 10.875 11.652344 10.875 11.683594 10.875 11.714844 C 10.875 11.722656 10.875 11.730469 10.875 11.738281 C 10.875 11.765625 10.875 11.792969 10.878906 11.816406 C 10.886719 11.839844 10.882812 11.847656 10.886719 11.863281 C 10.886719 11.878906 10.890625 11.902344 10.890625 11.917969 C 10.894531 11.9375 10.898438 11.964844 10.902344 11.988281 C 10.90625 12.011719 10.902344 12.011719 10.90625 12.023438 L 10.957031 12.289062 L 12.257812 19.59375 C 12.332031 20.015625 12.511719 20.390625 12.792969 20.714844 C 13.214844 19.699219 14.703125 19.226562 16.101562 19.226562 C 17.5 19.226562 18.988281 19.699219 19.40625 20.714844 C 19.6875 20.390625 19.867188 20.015625 19.941406 19.59375 L 21.242188 12.289062 L 21.292969 12.019531 C 21.394531 11.460938 21.304688 10.9375 21.015625 10.445312 C 20.800781 10.082031 20.511719 9.792969 20.140625 9.582031 C 19.773438 9.371094 19.375 9.261719 18.949219 9.265625 Z M 18.949219 9.265625 " fill-opacity="1" fill-rule="nonzero"/></svg>