<svg xmlns="http://www.w3.org/2000/svg" xmlns:xlink="http://www.w3.org/1999/xlink" width="142" zoomAndPan="magnify" viewBox="0 0 106.5 30.000001" height="40" preserveAspectRatio="xMidYMid meet" version="1.0"><defs><g/><clipPath id="id1"><path d="M 13 19 L 19 19 L 19 21.542969 L 13 21.542969 Z M 13 19 " clip-rule="nonzero"/></clipPath><clipPath id="id2"><path d="M 21 10 L 25.210938 10 L 25.210938 13 L 21 13 Z M 21 10 " clip-rule="nonzero"/></clipPath><clipPath id="id3"><path d="M 6.980469 10 L 11 10 L 11 13 L 6.980469 13 Z M 6.980469 10 " clip-rule="nonzero"/></clipPath><clipPath id="id4"><path d="M 18 5.5 L 21 5.5 L 21 10 L 18 10 Z M 18 5.5 " clip-rule="nonzero"/></clipPath><clipPath id="id5"><path d="M 11 5.5 L 14 5.5 L 14 10 L 11 10 Z M 11 5.5 " clip-rule="nonzero"/></clipPath></defs><g fill="#000000" fill-opacity="1"><g transform="translate(28.182404, 19.32417)"><g><path d="M 0.796875 0 L 0.796875 -10.609375 L 5.21875 -10.609375 C 6.414062 -10.609375 7.316406 -10.359375 7.921875 -9.859375 C 8.535156 -9.367188 8.84375 -8.722656 8.84375 -7.921875 C 8.84375 -7.316406 8.65625 -6.8125 8.28125 -6.40625 C 7.914062 -6 7.441406 -5.738281 6.859375 -5.625 L 6.859375 -5.515625 C 7.285156 -5.503906 7.679688 -5.390625 8.046875 -5.171875 C 8.410156 -4.960938 8.703125 -4.671875 8.921875 -4.296875 C 9.140625 -3.921875 9.25 -3.476562 9.25 -2.96875 C 9.25 -2.394531 9.101562 -1.882812 8.8125 -1.4375 C 8.519531 -0.988281 8.097656 -0.632812 7.546875 -0.375 C 7.003906 -0.125 6.34375 0 5.5625 0 Z M 3.359375 -2.0625 L 4.953125 -2.0625 C 5.503906 -2.0625 5.910156 -2.164062 6.171875 -2.375 C 6.441406 -2.59375 6.578125 -2.890625 6.578125 -3.265625 C 6.578125 -3.671875 6.4375 -3.992188 6.15625 -4.234375 C 5.875 -4.472656 5.488281 -4.59375 5 -4.59375 L 3.359375 -4.59375 Z M 3.359375 -6.25 L 4.78125 -6.25 C 5.207031 -6.25 5.550781 -6.347656 5.8125 -6.546875 C 6.082031 -6.753906 6.21875 -7.046875 6.21875 -7.421875 C 6.21875 -7.773438 6.09375 -8.050781 5.84375 -8.25 C 5.59375 -8.457031 5.253906 -8.5625 4.828125 -8.5625 L 3.359375 -8.5625 Z M 3.359375 -6.25 "/></g></g></g><g fill="#000000" fill-opacity="1"><g transform="translate(37.954749, 19.32417)"><g><path d="M 3.046875 0.140625 C 2.285156 0.140625 1.65625 -0.0507812 1.15625 -0.4375 C 0.664062 -0.832031 0.421875 -1.421875 0.421875 -2.203125 C 0.421875 -2.785156 0.554688 -3.25 0.828125 -3.59375 C 1.097656 -3.945312 1.457031 -4.207031 1.90625 -4.375 C 2.351562 -4.539062 2.847656 -4.648438 3.390625 -4.703125 C 4.066406 -4.753906 4.546875 -4.820312 4.828125 -4.90625 C 5.117188 -5 5.265625 -5.164062 5.265625 -5.40625 L 5.265625 -5.4375 C 5.265625 -5.695312 5.171875 -5.898438 4.984375 -6.046875 C 4.804688 -6.191406 4.5625 -6.265625 4.25 -6.265625 C 3.914062 -6.265625 3.644531 -6.191406 3.4375 -6.046875 C 3.238281 -5.898438 3.113281 -5.703125 3.0625 -5.453125 L 0.71875 -5.53125 C 0.820312 -6.25 1.171875 -6.847656 1.765625 -7.328125 C 2.367188 -7.816406 3.207031 -8.0625 4.28125 -8.0625 C 4.957031 -8.0625 5.554688 -7.953125 6.078125 -7.734375 C 6.609375 -7.523438 7.023438 -7.222656 7.328125 -6.828125 C 7.640625 -6.441406 7.796875 -5.96875 7.796875 -5.40625 L 7.796875 0 L 5.421875 0 L 5.421875 -1.109375 L 5.359375 -1.109375 C 4.910156 -0.273438 4.140625 0.140625 3.046875 0.140625 Z M 3.828125 -1.515625 C 4.234375 -1.515625 4.578125 -1.632812 4.859375 -1.875 C 5.140625 -2.125 5.28125 -2.441406 5.28125 -2.828125 L 5.28125 -3.578125 C 5.144531 -3.503906 4.945312 -3.441406 4.6875 -3.390625 C 4.425781 -3.335938 4.179688 -3.296875 3.953125 -3.265625 C 3.203125 -3.148438 2.828125 -2.835938 2.828125 -2.328125 C 2.828125 -2.066406 2.921875 -1.863281 3.109375 -1.71875 C 3.296875 -1.582031 3.535156 -1.515625 3.828125 -1.515625 Z M 3.828125 -1.515625 "/></g></g></g><g fill="#000000" fill-opacity="1"><g transform="translate(46.582524, 19.32417)"><g><path d="M 0.796875 0 L 0.796875 -10.609375 L 3.328125 -10.609375 L 3.328125 -5.109375 L 3.453125 -5.109375 L 5.6875 -7.953125 L 8.546875 -7.953125 L 5.734375 -4.484375 L 8.671875 0 L 5.734375 0 L 3.84375 -3 L 3.328125 -2.390625 L 3.328125 0 Z M 0.796875 0 "/></g></g></g><g fill="#000000" fill-opacity="1"><g transform="translate(55.334598, 19.32417)"><g><path d="M 3.046875 0.140625 C 2.285156 0.140625 1.65625 -0.0507812 1.15625 -0.4375 C 0.664062 -0.832031 0.421875 -1.421875 0.421875 -2.203125 C 0.421875 -2.785156 0.554688 -3.25 0.828125 -3.59375 C 1.097656 -3.945312 1.457031 -4.207031 1.90625 -4.375 C 2.351562 -4.539062 2.847656 -4.648438 3.390625 -4.703125 C 4.066406 -4.753906 4.546875 -4.820312 4.828125 -4.90625 C 5.117188 -5 5.265625 -5.164062 5.265625 -5.40625 L 5.265625 -5.4375 C 5.265625 -5.695312 5.171875 -5.898438 4.984375 -6.046875 C 4.804688 -6.191406 4.5625 -6.265625 4.25 -6.265625 C 3.914062 -6.265625 3.644531 -6.191406 3.4375 -6.046875 C 3.238281 -5.898438 3.113281 -5.703125 3.0625 -5.453125 L 0.71875 -5.53125 C 0.820312 -6.25 1.171875 -6.847656 1.765625 -7.328125 C 2.367188 -7.816406 3.207031 -8.0625 4.28125 -8.0625 C 4.957031 -8.0625 5.554688 -7.953125 6.078125 -7.734375 C 6.609375 -7.523438 7.023438 -7.222656 7.328125 -6.828125 C 7.640625 -6.441406 7.796875 -5.96875 7.796875 -5.40625 L 7.796875 0 L 5.421875 0 L 5.421875 -1.109375 L 5.359375 -1.109375 C 4.910156 -0.273438 4.140625 0.140625 3.046875 0.140625 Z M 3.828125 -1.515625 C 4.234375 -1.515625 4.578125 -1.632812 4.859375 -1.875 C 5.140625 -2.125 5.28125 -2.441406 5.28125 -2.828125 L 5.28125 -3.578125 C 5.144531 -3.503906 4.945312 -3.441406 4.6875 -3.390625 C 4.425781 -3.335938 4.179688 -3.296875 3.953125 -3.265625 C 3.203125 -3.148438 2.828125 -2.835938 2.828125 -2.328125 C 2.828125 -2.066406 2.921875 -1.863281 3.109375 -1.71875 C 3.296875 -1.582031 3.535156 -1.515625 3.828125 -1.515625 Z M 3.828125 -1.515625 "/></g></g></g><g fill="#000000" fill-opacity="1"><g transform="translate(63.962372, 19.32417)"><g><path d="M 3.328125 -4.53125 L 3.328125 0 L 0.796875 0 L 0.796875 -7.953125 L 3.203125 -7.953125 L 3.203125 -6.484375 L 3.296875 -6.484375 C 3.472656 -6.972656 3.769531 -7.359375 4.1875 -7.640625 C 4.613281 -7.921875 5.125 -8.0625 5.71875 -8.0625 C 6.269531 -8.0625 6.753906 -7.9375 7.171875 -7.6875 C 7.585938 -7.4375 7.910156 -7.085938 8.140625 -6.640625 C 8.367188 -6.191406 8.476562 -5.664062 8.46875 -5.0625 L 8.46875 0 L 5.9375 0 L 5.9375 -4.578125 C 5.945312 -5.015625 5.835938 -5.359375 5.609375 -5.609375 C 5.378906 -5.859375 5.066406 -5.984375 4.671875 -5.984375 C 4.265625 -5.984375 3.941406 -5.851562 3.703125 -5.59375 C 3.460938 -5.34375 3.335938 -4.988281 3.328125 -4.53125 Z M 3.328125 -4.53125 "/></g></g></g><g fill="#000000" fill-opacity="1"><g transform="translate(73.299676, 19.32417)"><g><path d="M 3.046875 0.140625 C 2.285156 0.140625 1.65625 -0.0507812 1.15625 -0.4375 C 0.664062 -0.832031 0.421875 -1.421875 0.421875 -2.203125 C 0.421875 -2.785156 0.554688 -3.25 0.828125 -3.59375 C 1.097656 -3.945312 1.457031 -4.207031 1.90625 -4.375 C 2.351562 -4.539062 2.847656 -4.648438 3.390625 -4.703125 C 4.066406 -4.753906 4.546875 -4.820312 4.828125 -4.90625 C 5.117188 -5 5.265625 -5.164062 5.265625 -5.40625 L 5.265625 -5.4375 C 5.265625 -5.695312 5.171875 -5.898438 4.984375 -6.046875 C 4.804688 -6.191406 4.5625 -6.265625 4.25 -6.265625 C 3.914062 -6.265625 3.644531 -6.191406 3.4375 -6.046875 C 3.238281 -5.898438 3.113281 -5.703125 3.0625 -5.453125 L 0.71875 -5.53125 C 0.820312 -6.25 1.171875 -6.847656 1.765625 -7.328125 C 2.367188 -7.816406 3.207031 -8.0625 4.28125 -8.0625 C 4.957031 -8.0625 5.554688 -7.953125 6.078125 -7.734375 C 6.609375 -7.523438 7.023438 -7.222656 7.328125 -6.828125 C 7.640625 -6.441406 7.796875 -5.96875 7.796875 -5.40625 L 7.796875 0 L 5.421875 0 L 5.421875 -1.109375 L 5.359375 -1.109375 C 4.910156 -0.273438 4.140625 0.140625 3.046875 0.140625 Z M 3.828125 -1.515625 C 4.234375 -1.515625 4.578125 -1.632812 4.859375 -1.875 C 5.140625 -2.125 5.28125 -2.441406 5.28125 -2.828125 L 5.28125 -3.578125 C 5.144531 -3.503906 4.945312 -3.441406 4.6875 -3.390625 C 4.425781 -3.335938 4.179688 -3.296875 3.953125 -3.265625 C 3.203125 -3.148438 2.828125 -2.835938 2.828125 -2.328125 C 2.828125 -2.066406 2.921875 -1.863281 3.109375 -1.71875 C 3.296875 -1.582031 3.535156 -1.515625 3.828125 -1.515625 Z M 3.828125 -1.515625 "/></g></g></g><g fill="#000000" fill-opacity="1"><g transform="translate(81.927452, 19.32417)"><g><path d="M 0.828125 0 L 0.828125 -1.4375 L 4.515625 -5.9375 L 4.515625 -5.984375 L 0.953125 -5.984375 L 0.953125 -7.953125 L 7.53125 -7.953125 L 7.53125 -6.375 L 4.109375 -2.015625 L 4.109375 -1.96875 L 7.65625 -1.96875 L 7.65625 0 Z M 0.828125 0 "/></g></g></g><g fill="#000000" fill-opacity="1"><g transform="translate(90.503444, 19.32417)"><g><path d="M 4.515625 0.15625 C 3.679688 0.15625 2.960938 -0.015625 2.359375 -0.359375 C 1.765625 -0.703125 1.304688 -1.179688 0.984375 -1.796875 C 0.660156 -2.421875 0.5 -3.140625 0.5 -3.953125 C 0.5 -4.765625 0.660156 -5.476562 0.984375 -6.09375 C 1.304688 -6.71875 1.765625 -7.203125 2.359375 -7.546875 C 2.960938 -7.890625 3.679688 -8.0625 4.515625 -8.0625 C 5.347656 -8.0625 6.0625 -7.890625 6.65625 -7.546875 C 7.257812 -7.203125 7.722656 -6.71875 8.046875 -6.09375 C 8.367188 -5.476562 8.53125 -4.765625 8.53125 -3.953125 C 8.53125 -3.140625 8.367188 -2.421875 8.046875 -1.796875 C 7.722656 -1.179688 7.257812 -0.703125 6.65625 -0.359375 C 6.0625 -0.015625 5.347656 0.15625 4.515625 0.15625 Z M 4.53125 -1.765625 C 4.976562 -1.765625 5.328125 -1.96875 5.578125 -2.375 C 5.828125 -2.78125 5.953125 -3.3125 5.953125 -3.96875 C 5.953125 -4.625 5.828125 -5.15625 5.578125 -5.5625 C 5.328125 -5.976562 4.976562 -6.1875 4.53125 -6.1875 C 4.0625 -6.1875 3.703125 -5.976562 3.453125 -5.5625 C 3.203125 -5.15625 3.078125 -4.625 3.078125 -3.96875 C 3.078125 -3.3125 3.203125 -2.78125 3.453125 -2.375 C 3.703125 -1.96875 4.0625 -1.765625 4.53125 -1.765625 Z M 4.53125 -1.765625 "/></g></g></g><g clip-path="url(#id1)"><path fill="#000000" d="M 18.09375 20.257812 C 17.582031 19.996094 16.851562 19.847656 16.097656 19.847656 C 14.777344 19.847656 13.449219 20.300781 13.308594 21.167969 C 13.703125 21.417969 14.128906 21.542969 14.59375 21.542969 L 17.597656 21.542969 C 18.0625 21.542969 18.492188 21.417969 18.882812 21.167969 C 18.828125 20.800781 18.5625 20.496094 18.09375 20.257812 Z M 15.648438 21.078125 L 15.027344 21.078125 L 15.027344 20.460938 L 15.648438 20.460938 Z M 17.167969 21.078125 L 16.546875 21.078125 L 16.546875 20.460938 L 17.167969 20.460938 Z M 17.167969 21.078125 " fill-opacity="1" fill-rule="nonzero"/></g><g clip-path="url(#id2)"><path fill="#000000" d="M 23.09375 10.585938 C 22.644531 10.519531 22.195312 10.503906 21.742188 10.542969 C 21.742188 10.550781 21.75 10.558594 21.75 10.566406 C 21.765625 10.601562 21.777344 10.636719 21.789062 10.675781 C 21.789062 10.6875 21.800781 10.699219 21.804688 10.710938 C 21.820312 10.765625 21.835938 10.8125 21.847656 10.859375 L 21.851562 10.878906 C 21.863281 10.921875 21.875 10.964844 21.882812 11.011719 L 21.890625 11.054688 C 21.898438 11.09375 21.90625 11.132812 21.910156 11.167969 C 21.910156 11.183594 21.914062 11.195312 21.917969 11.210938 C 21.925781 11.261719 21.929688 11.3125 21.933594 11.363281 C 21.933594 11.367188 21.933594 11.371094 21.933594 11.375 C 21.933594 11.421875 21.941406 11.46875 21.941406 11.519531 C 21.941406 11.53125 21.941406 11.546875 21.941406 11.5625 C 21.941406 11.601562 21.941406 11.640625 21.941406 11.675781 C 21.941406 11.691406 21.941406 11.707031 21.941406 11.722656 C 21.941406 11.773438 21.941406 11.824219 21.933594 11.875 C 22.246094 11.964844 22.5625 12.035156 22.882812 12.078125 C 23.828125 12.207031 24.730469 11.863281 25.207031 11.636719 C 24.816406 11.285156 24.039062 10.714844 23.09375 10.585938 Z M 23.09375 10.585938 " fill-opacity="1" fill-rule="nonzero"/></g><g clip-path="url(#id3)"><path fill="#000000" d="M 9.101562 10.585938 C 8.148438 10.714844 7.378906 11.285156 6.984375 11.636719 C 7.460938 11.867188 8.363281 12.207031 9.316406 12.078125 C 9.636719 12.035156 9.953125 11.964844 10.265625 11.875 C 10.265625 11.871094 10.265625 11.863281 10.265625 11.859375 C 10.265625 11.8125 10.257812 11.769531 10.257812 11.726562 C 10.257812 11.707031 10.257812 11.6875 10.257812 11.667969 C 10.257812 11.636719 10.257812 11.601562 10.257812 11.570312 C 10.257812 11.550781 10.257812 11.53125 10.257812 11.511719 C 10.257812 11.472656 10.257812 11.433594 10.261719 11.394531 L 10.261719 11.359375 C 10.265625 11.3125 10.273438 11.261719 10.28125 11.214844 C 10.28125 11.195312 10.285156 11.179688 10.289062 11.160156 C 10.292969 11.128906 10.300781 11.09375 10.304688 11.058594 C 10.308594 11.042969 10.3125 11.023438 10.316406 11.007812 C 10.324219 10.96875 10.335938 10.929688 10.34375 10.890625 L 10.351562 10.859375 C 10.363281 10.808594 10.378906 10.761719 10.394531 10.714844 L 10.410156 10.671875 C 10.421875 10.636719 10.433594 10.601562 10.445312 10.566406 L 10.457031 10.542969 C 10.003906 10.503906 9.550781 10.519531 9.101562 10.585938 Z M 9.101562 10.585938 " fill-opacity="1" fill-rule="nonzero"/></g><g clip-path="url(#id4)"><path fill="#000000" d="M 20.488281 9.074219 L 20.769531 5.96875 C 20.789062 5.746094 20.691406 5.609375 20.476562 5.550781 C 20.257812 5.492188 20.105469 5.566406 20.011719 5.769531 L 18.703125 8.648438 L 18.949219 8.648438 C 19.5 8.648438 20.011719 8.792969 20.488281 9.074219 Z M 20.488281 9.074219 " fill-opacity="1" fill-rule="nonzero"/></g><g clip-path="url(#id5)"><path fill="#000000" d="M 11.710938 9.074219 C 12.183594 8.792969 12.695312 8.652344 13.246094 8.652344 L 13.492188 8.652344 L 12.1875 5.769531 C 12.09375 5.566406 11.941406 5.496094 11.726562 5.550781 C 11.507812 5.605469 11.410156 5.746094 11.429688 5.964844 Z M 11.710938 9.074219 " fill-opacity="1" fill-rule="nonzero"/></g><path fill="#000000" d="M 18.949219 9.265625 L 13.246094 9.265625 C 12.820312 9.265625 12.425781 9.371094 12.054688 9.582031 C 11.6875 9.792969 11.398438 10.082031 11.183594 10.449219 C 10.976562 10.808594 10.871094 11.199219 10.875 11.613281 L 10.875 11.621094 C 10.875 11.652344 10.875 11.683594 10.875 11.714844 C 10.875 11.722656 10.875 11.730469 10.875 11.738281 C 10.875 11.765625 10.875 11.792969 10.878906 11.816406 C 10.886719 11.839844 10.882812 11.847656 10.886719 11.863281 C 10.886719 11.878906 10.890625 11.902344 10.890625 11.917969 C 10.894531 11.9375 10.898438 11.964844 10.902344 11.988281 C 10.90625 12.011719 10.902344 12.011719 10.90625 12.023438 L 10.957031 12.289062 L 12.257812 19.59375 C 12.332031 20.015625 12.511719 20.390625 12.792969 20.714844 C 13.214844 19.699219 14.703125 19.226562 16.101562 19.226562 C 17.5 19.226562 18.988281 19.699219 19.40625 20.714844 C 19.6875 20.390625 19.867188 20.015625 19.941406 19.59375 L 21.242188 12.289062 L 21.292969 12.019531 C 21.394531 11.460938 21.304688 10.9375 21.015625 10.445312 C 20.800781 10.082031 20.511719 9.792969 20.140625 9.582031 C 19.773438 9.371094 19.375 9.261719 18.949219 9.265625 Z M 18.949219 9.265625 " fill-opacity="1" fill-rule="nonzero"/></svg>