<svg xmlns="http://www.w3.org/2000/svg" xmlns:xlink="http://www.w3.org/1999/xlink" width="166" zoomAndPan="magnify" viewBox="0 0 124.5 36.000001" height="48" preserveAspectRatio="xMidYMid meet" version="1.0"><defs><clipPath id="id1"><path d="M 19.300781 2.777344 L 97 2.777344 L 97 31.351562 L 19.300781 31.351562 Z M 19.300781 2.777344 " clip-rule="nonzero"/></clipPath><clipPath id="id2"><path d="M 81 24 L 84 24 L 84 31.351562 L 81 31.351562 Z M 81 24 " clip-rule="nonzero"/></clipPath><clipPath id="id3"><path d="M 37 24 L 44 24 L 44 31.351562 L 37 31.351562 Z M 37 24 " clip-rule="nonzero"/></clipPath><clipPath id="id4"><path d="M 24 24 L 28 24 L 28 31.351562 L 24 31.351562 Z M 24 24 " clip-rule="nonzero"/></clipPath><clipPath id="id5"><path d="M 31 24 L 36 24 L 36 31.351562 L 31 31.351562 Z M 31 24 " clip-rule="nonzero"/></clipPath><clipPath id="id6"><path d="M 29 24 L 32 24 L 32 31.351562 L 29 31.351562 Z M 29 24 " clip-rule="nonzero"/></clipPath><clipPath id="id7"><path d="M 43 24 L 47 24 L 47 31.351562 L 43 31.351562 Z M 43 24 " clip-rule="nonzero"/></clipPath><clipPath id="id8"><path d="M 19.300781 24 L 23 24 L 23 31.351562 L 19.300781 31.351562 Z M 19.300781 24 " clip-rule="nonzero"/></clipPath><clipPath id="id9"><path d="M 90 24 L 95 24 L 95 31.351562 L 90 31.351562 Z M 90 24 " clip-rule="nonzero"/></clipPath><clipPath id="id10"><path d="M 45 24 L 50 24 L 50 31.351562 L 45 31.351562 Z M 45 24 " clip-rule="nonzero"/></clipPath><clipPath id="id11"><path d="M 49 24 L 54 24 L 54 31.351562 L 49 31.351562 Z M 49 24 " clip-rule="nonzero"/></clipPath><clipPath id="id12"><path d="M 35 24 L 38 24 L 38 31.351562 L 35 31.351562 Z M 35 24 " clip-rule="nonzero"/></clipPath><clipPath id="id13"><path d="M 83 24 L 85 24 L 85 31.351562 L 83 31.351562 Z M 83 24 " clip-rule="nonzero"/></clipPath><clipPath id="id14"><path d="M 55 24 L 60 24 L 60 31.351562 L 55 31.351562 Z M 55 24 " clip-rule="nonzero"/></clipPath><clipPath id="id15"><path d="M 59 24 L 63 24 L 63 31.351562 L 59 31.351562 Z M 59 24 " clip-rule="nonzero"/></clipPath><clipPath id="id16"><path d="M 62 24 L 66 24 L 66 31.351562 L 62 31.351562 Z M 62 24 " clip-rule="nonzero"/></clipPath><clipPath id="id17"><path d="M 65 24 L 67 24 L 67 31.351562 L 65 31.351562 Z M 65 24 " clip-rule="nonzero"/></clipPath><clipPath id="id18"><path d="M 66 24 L 71 24 L 71 31.351562 L 66 31.351562 Z M 66 24 " clip-rule="nonzero"/></clipPath><clipPath id="id19"><path d="M 71 24 L 73 24 L 73 31.351562 L 71 31.351562 Z M 71 24 " clip-rule="nonzero"/></clipPath><clipPath id="id20"><path d="M 54 24 L 56 24 L 56 31.351562 L 54 31.351562 Z M 54 24 " clip-rule="nonzero"/></clipPath><clipPath id="id21"><path d="M 27 24 L 30 24 L 30 31.351562 L 27 31.351562 Z M 27 24 " clip-rule="nonzero"/></clipPath><clipPath id="id22"><path d="M 75 24 L 82 24 L 82 31.351562 L 75 31.351562 Z M 75 24 " clip-rule="nonzero"/></clipPath><clipPath id="id23"><path d="M 72 24 L 76 24 L 76 31.351562 L 72 31.351562 Z M 72 24 " clip-rule="nonzero"/></clipPath><clipPath id="id24"><path d="M 84 24 L 89 24 L 89 31.351562 L 84 31.351562 Z M 84 24 " clip-rule="nonzero"/></clipPath><clipPath id="id25"><path d="M 88 24 L 91 24 L 91 31.351562 L 88 31.351562 Z M 88 24 " clip-rule="nonzero"/></clipPath><clipPath id="id26"><path d="M 94 24 L 97 24 L 97 31.351562 L 94 31.351562 Z M 94 24 " clip-rule="nonzero"/></clipPath><clipPath id="id27"><path d="M 22 24 L 25 24 L 25 31.351562 L 22 31.351562 Z M 22 24 " clip-rule="nonzero"/></clipPath><clipPath id="id28"><path d="M 53 24 L 55 24 L 55 31.351562 L 53 31.351562 Z M 53 24 " clip-rule="nonzero"/></clipPath><clipPath id="id29"><path d="M 70 24 L 72 24 L 72 31.351562 L 70 31.351562 Z M 70 24 " clip-rule="nonzero"/></clipPath><clipPath id="id30"><path d="M 103 26 L 105.023438 26 L 105.023438 29 L 103 29 Z M 103 26 " clip-rule="nonzero"/></clipPath><clipPath id="id31"><path d="M 98 19 L 105.023438 19 L 105.023438 26 L 98 26 Z M 98 19 " clip-rule="nonzero"/></clipPath><clipPath id="id32"><path d="M 98 12 L 105.023438 12 L 105.023438 19 L 98 19 Z M 98 12 " clip-rule="nonzero"/></clipPath></defs><g clip-path="url(#id1)"><path fill="#000000" d="M 19.3125 31.351562 L 96.851562 31.351562 L 96.851562 2.777344 L 19.3125 2.777344 Z M 19.3125 31.351562 " fill-opacity="1" fill-rule="nonzero"/></g><g clip-path="url(#id2)"><path fill="#cfd4d8" d="M 81.113281 31.351562 L 83.542969 31.351562 L 83.542969 24.234375 L 81.113281 24.234375 Z M 81.113281 31.351562 " fill-opacity="1" fill-rule="nonzero"/></g><g clip-path="url(#id3)"><path fill="#741472" d="M 37.535156 31.351562 L 43.609375 31.351562 L 43.609375 24.234375 L 37.535156 24.234375 Z M 37.535156 31.351562 " fill-opacity="1" fill-rule="nonzero"/></g><g clip-path="url(#id4)"><path fill="#ffd400" d="M 24.171875 31.351562 L 27.816406 31.351562 L 27.816406 24.234375 L 24.171875 24.234375 Z M 24.171875 31.351562 " fill-opacity="1" fill-rule="nonzero"/></g><g clip-path="url(#id5)"><path fill="#f15b5b" d="M 31.488281 31.351562 L 35.132812 31.351562 L 35.132812 24.234375 L 31.488281 24.234375 Z M 31.488281 31.351562 " fill-opacity="1" fill-rule="nonzero"/></g><g clip-path="url(#id6)"><path fill="#cfd4d8" d="M 29.03125 31.351562 L 31.511719 31.351562 L 31.511719 24.234375 L 29.03125 24.234375 Z M 29.03125 31.351562 " fill-opacity="1" fill-rule="nonzero"/></g><g clip-path="url(#id7)"><path fill="#ce171e" d="M 43.582031 31.351562 L 46.011719 31.351562 L 46.011719 24.234375 L 43.582031 24.234375 Z M 43.582031 31.351562 " fill-opacity="1" fill-rule="nonzero"/></g><g clip-path="url(#id8)"><path fill="#ce171e" d="M 19.3125 31.351562 L 22.957031 31.351562 L 22.957031 24.234375 L 19.3125 24.234375 Z M 19.3125 31.351562 " fill-opacity="1" fill-rule="nonzero"/></g><g clip-path="url(#id9)"><path fill="#741472" d="M 90.832031 31.351562 L 94.472656 31.351562 L 94.472656 24.234375 L 90.828125 24.234375 Z M 90.832031 31.351562 " fill-opacity="1" fill-rule="nonzero"/></g><g clip-path="url(#id10)"><path fill="#cfd4d8" d="M 45.988281 31.351562 L 49.632812 31.351562 L 49.632812 24.234375 L 45.988281 24.234375 Z M 45.988281 31.351562 " fill-opacity="1" fill-rule="nonzero"/></g><g clip-path="url(#id11)"><path fill="#ce171e" d="M 49.609375 31.351562 L 53.25 31.351562 L 53.25 24.234375 L 49.609375 24.234375 Z M 49.609375 31.351562 " fill-opacity="1" fill-rule="nonzero"/></g><g clip-path="url(#id12)"><path fill="#ffd400" d="M 35.132812 31.351562 L 37.5625 31.351562 L 37.5625 24.234375 L 35.132812 24.234375 Z M 35.132812 31.351562 " fill-opacity="1" fill-rule="nonzero"/></g><g clip-path="url(#id13)"><path fill="#ffffff" d="M 83.542969 31.351562 L 84.757812 31.351562 L 84.757812 24.234375 L 83.542969 24.234375 Z M 83.542969 31.351562 " fill-opacity="1" fill-rule="nonzero"/></g><g clip-path="url(#id14)"><path fill="#ffd400" d="M 55.707031 31.351562 L 59.324219 31.351562 L 59.324219 24.234375 L 55.707031 24.234375 Z M 55.707031 31.351562 " fill-opacity="1" fill-rule="nonzero"/></g><g clip-path="url(#id15)"><path fill="#741472" d="M 59.324219 31.351562 L 62.96875 31.351562 L 62.96875 24.234375 L 59.324219 24.234375 Z M 59.324219 31.351562 " fill-opacity="1" fill-rule="nonzero"/></g><g clip-path="url(#id16)"><path fill="#f15b5b" d="M 62.941406 31.351562 L 65.371094 31.351562 L 65.371094 24.234375 L 62.941406 24.234375 Z M 62.941406 31.351562 " fill-opacity="1" fill-rule="nonzero"/></g><g clip-path="url(#id17)"><path fill="#ce171e" d="M 65.371094 31.351562 L 66.585938 31.351562 L 66.585938 24.234375 L 65.371094 24.234375 Z M 65.371094 31.351562 " fill-opacity="1" fill-rule="nonzero"/></g><g clip-path="url(#id18)"><path fill="#ffd400" d="M 66.585938 31.351562 L 70.230469 31.351562 L 70.230469 24.234375 L 66.585938 24.234375 Z M 66.585938 31.351562 " fill-opacity="1" fill-rule="nonzero"/></g><g clip-path="url(#id19)"><path fill="#ffffff" d="M 71.421875 31.351562 L 72.636719 31.351562 L 72.636719 24.234375 L 71.421875 24.234375 Z M 71.421875 31.351562 " fill-opacity="1" fill-rule="nonzero"/></g><g clip-path="url(#id20)"><path fill="#ffffff" d="M 54.464844 31.351562 L 55.679688 31.351562 L 55.679688 24.234375 L 54.464844 24.234375 Z M 54.464844 31.351562 " fill-opacity="1" fill-rule="nonzero"/></g><g clip-path="url(#id21)"><path fill="#ffffff" d="M 27.792969 31.351562 L 29.007812 31.351562 L 29.007812 24.234375 L 27.792969 24.234375 Z M 27.792969 31.351562 " fill-opacity="1" fill-rule="nonzero"/></g><g clip-path="url(#id22)"><path fill="#ce171e" d="M 75.0625 31.351562 L 81.140625 31.351562 L 81.140625 24.234375 L 75.0625 24.234375 Z M 75.0625 31.351562 " fill-opacity="1" fill-rule="nonzero"/></g><g clip-path="url(#id23)"><path fill="#741472" d="M 72.636719 31.351562 L 75.066406 31.351562 L 75.066406 24.234375 L 72.636719 24.234375 Z M 72.636719 31.351562 " fill-opacity="1" fill-rule="nonzero"/></g><g clip-path="url(#id24)"><path fill="#f15b5b" d="M 84.757812 31.351562 L 88.402344 31.351562 L 88.402344 24.234375 L 84.757812 24.234375 Z M 84.757812 31.351562 " fill-opacity="1" fill-rule="nonzero"/></g><g clip-path="url(#id25)"><path fill="#ffd400" d="M 88.402344 31.351562 L 90.832031 31.351562 L 90.832031 24.234375 L 88.402344 24.234375 Z M 88.402344 31.351562 " fill-opacity="1" fill-rule="nonzero"/></g><g clip-path="url(#id26)"><path fill="#ce171e" d="M 94.449219 31.351562 L 96.851562 31.351562 L 96.851562 24.234375 L 94.449219 24.234375 Z M 94.449219 31.351562 " fill-opacity="1" fill-rule="nonzero"/></g><g clip-path="url(#id27)"><path fill="#741472" d="M 22.957031 31.351562 L 24.171875 31.351562 L 24.171875 24.234375 L 22.957031 24.234375 Z M 22.957031 31.351562 " fill-opacity="1" fill-rule="nonzero"/></g><g clip-path="url(#id28)"><path fill="#741472" d="M 53.25 31.351562 L 54.464844 31.351562 L 54.464844 24.234375 L 53.25 24.234375 Z M 53.25 31.351562 " fill-opacity="1" fill-rule="nonzero"/></g><g clip-path="url(#id29)"><path fill="#cfd4d8" d="M 70.230469 31.351562 L 71.445312 31.351562 L 71.445312 24.234375 L 70.230469 24.234375 Z M 70.230469 31.351562 " fill-opacity="1" fill-rule="nonzero"/></g><path fill="#ffffff" d="M 33.203125 17.15625 C 33.203125 17.105469 33.140625 17.089844 33.140625 17.089844 C 32.539062 16.980469 31.976562 16.558594 31.550781 16.109375 C 30.855469 15.378906 30.269531 14.445312 30.039062 14.007812 C 29.972656 13.855469 30.070312 13.835938 30.070312 13.835938 C 31.242188 13.378906 31.4375 12.199219 31.4375 11.878906 C 31.4375 10.382812 30.027344 9.941406 28.761719 9.941406 C 28.28125 9.941406 28.121094 9.980469 27.621094 9.980469 C 27.039062 9.980469 26.691406 9.941406 26.601562 9.941406 C 26.519531 9.941406 26.46875 10.011719 26.46875 10.089844 C 26.46875 10.453125 27.289062 9.839844 27.277344 11.046875 L 27.277344 15.851562 C 27.289062 16.96875 26.511719 16.65625 26.511719 16.929688 C 26.511719 17.019531 26.605469 17.050781 26.667969 17.050781 C 26.960938 17.050781 27.289062 17.007812 27.757812 17.007812 C 28.351562 17.007812 28.5 17.050781 28.839844 17.050781 C 29.085938 17.050781 29.128906 17 29.128906 16.929688 C 29.128906 16.585938 28.078125 17.109375 28.078125 15.664062 L 28.078125 10.59375 C 28.078125 10.292969 28.300781 10.292969 28.617188 10.292969 C 29.769531 10.292969 30.679688 10.933594 30.699219 12.148438 C 30.710938 12.972656 30.097656 13.753906 29.078125 13.753906 C 28.722656 13.753906 28.800781 13.730469 28.71875 13.730469 C 28.660156 13.722656 28.628906 13.75 28.617188 13.804688 C 28.617188 13.8125 28.617188 13.816406 28.617188 13.824219 C 28.617188 13.917969 28.695312 13.960938 28.777344 13.988281 C 28.894531 14.035156 29.148438 14.078125 29.414062 14.492188 C 30.09375 15.617188 30.867188 17.292969 32.617188 17.292969 C 33.269531 17.292969 33.203125 17.214844 33.203125 17.15625 M 89.214844 9.722656 C 88.808594 9.722656 88.292969 9.847656 87.910156 10.183594 C 87.199219 10.8125 86.722656 11.863281 86.441406 12.535156 C 86.355469 12.765625 86.265625 12.832031 86.21875 12.832031 C 86.15625 12.832031 86.097656 12.769531 86.019531 12.648438 L 84.953125 10.921875 C 84.894531 10.832031 84.773438 10.671875 84.773438 10.511719 C 84.773438 10.21875 85.242188 10.210938 85.242188 10.039062 C 85.242188 9.949219 85.121094 9.9375 85.050781 9.9375 C 84.953125 9.9375 84.679688 9.980469 84.351562 9.980469 C 83.675781 9.980469 83.480469 9.9375 83.210938 9.9375 C 83.140625 9.9375 83.082031 10.019531 83.082031 10.089844 C 83.082031 10.257812 83.570312 10.140625 83.832031 10.570312 L 85.5 13.25 C 85.582031 13.371094 85.734375 13.574219 85.738281 13.761719 L 85.738281 16.195312 C 85.734375 16.90625 84.960938 16.644531 84.960938 16.925781 C 84.960938 17.035156 85.023438 17.046875 85.109375 17.046875 C 85.199219 17.046875 85.5625 17.003906 86.011719 17.003906 C 86.382812 17.003906 86.960938 17.046875 87.109375 17.046875 C 87.257812 17.046875 87.34375 17.035156 87.34375 16.945312 C 87.34375 16.636719 86.523438 16.914062 86.539062 16.042969 L 86.539062 13.640625 C 86.722656 13.03125 87.140625 12.046875 87.765625 11.265625 C 88.257812 10.652344 88.828125 10.171875 89.605469 9.90625 C 89.660156 9.886719 89.703125 9.863281 89.703125 9.808594 C 89.703125 9.714844 89.210938 9.71875 89.210938 9.71875 M 73.074219 10.992188 C 73.074219 10.320312 73.050781 10.359375 74.011719 10.359375 C 74.414062 10.359375 75.453125 10.300781 75.710938 10.640625 C 75.875 10.875 75.710938 11.355469 75.953125 11.355469 C 76.011719 11.355469 76.152344 11.277344 76.152344 10.160156 C 76.152344 10.042969 76.132812 9.941406 76.054688 9.941406 C 75.742188 9.941406 74.820312 9.980469 74.621094 9.980469 C 74.203125 9.980469 73.683594 9.941406 71.792969 9.941406 C 71.503906 9.941406 71.445312 9.980469 71.445312 10.0625 C 71.445312 10.179688 71.664062 10.203125 71.742188 10.222656 C 72.28125 10.300781 72.28125 10.785156 72.273438 11.234375 L 72.273438 15.8125 C 72.28125 16.285156 72.265625 16.566406 72.003906 16.6875 C 71.683594 16.847656 71.582031 16.828125 71.5625 16.949219 C 71.5625 17.027344 71.625 17.050781 71.710938 17.050781 C 72.113281 17.050781 72.535156 17.019531 72.933594 17.007812 C 73.695312 16.988281 74.453125 17.050781 75.214844 17.050781 C 75.652344 17.050781 75.875 17.070312 76.191406 16.707031 C 76.429688 16.449219 76.691406 16.097656 76.691406 15.734375 C 76.691406 15.714844 76.683594 15.613281 76.613281 15.613281 C 76.480469 15.613281 76.140625 16.648438 73.832031 16.648438 C 72.992188 16.648438 73.070312 16.40625 73.074219 15.8125 L 73.074219 13.96875 C 73.074219 13.816406 73.042969 13.644531 73.25 13.632812 L 74.730469 13.632812 C 75.574219 13.644531 75.234375 14.523438 75.542969 14.523438 C 75.613281 14.523438 75.652344 14.484375 75.652344 14.398438 C 75.652344 14.125 75.632812 13.867188 75.632812 13.605469 C 75.632812 13.28125 75.652344 12.941406 75.652344 12.589844 C 75.652344 12.511719 75.621094 12.402344 75.542969 12.402344 C 75.300781 12.402344 75.574219 13.203125 74.53125 13.199219 L 73.453125 13.199219 C 73.050781 13.203125 73.070312 13.203125 73.074219 12.859375 Z M 61.289062 15.8125 C 61.289062 16.40625 61.203125 16.648438 62.058594 16.648438 C 64.394531 16.648438 64.742188 15.613281 64.871094 15.613281 C 64.941406 15.613281 64.953125 15.714844 64.953125 15.734375 C 64.953125 16.09375 64.691406 16.449219 64.445312 16.707031 C 64.125 17.070312 63.902344 17.050781 63.453125 17.050781 C 62.683594 17.050781 61.917969 16.988281 61.144531 17.007812 C 60.742188 17.019531 60.316406 17.050781 59.910156 17.050781 C 59.820312 17.050781 59.757812 17.027344 59.757812 16.949219 C 59.78125 16.828125 59.878906 16.847656 60.207031 16.6875 C 60.46875 16.566406 60.488281 16.285156 60.488281 15.8125 L 60.488281 10.722656 C 60.488281 10.203125 59.636719 10.273438 59.636719 10.070312 C 59.636719 9.960938 59.707031 9.941406 59.839844 9.941406 C 60.054688 9.941406 60.367188 9.980469 60.859375 9.980469 C 61.4375 9.980469 61.683594 9.941406 61.835938 9.941406 C 61.960938 9.941406 62.023438 9.960938 62.023438 10.082031 C 62.023438 10.3125 61.289062 10.058594 61.289062 10.933594 Z M 50.277344 10.59375 C 50.277344 10.292969 50.5 10.292969 50.828125 10.292969 C 51.992188 10.292969 52.933594 10.933594 52.933594 12.148438 C 52.933594 13.054688 52.328125 13.542969 51.292969 13.542969 C 50.925781 13.542969 50.714844 13.484375 50.632812 13.484375 C 50.574219 13.476562 50.539062 13.5 50.53125 13.558594 C 50.53125 13.5625 50.53125 13.570312 50.53125 13.574219 C 50.53125 13.753906 51.121094 13.804688 51.222656 13.804688 C 53.382812 13.804688 53.683594 12.277344 53.683594 11.878906 C 53.683594 10.382812 52.257812 9.941406 50.964844 9.941406 C 50.480469 9.941406 50.316406 9.980469 49.8125 9.980469 C 49.222656 9.980469 48.867188 9.941406 48.777344 9.941406 C 48.695312 9.941406 48.644531 10.007812 48.644531 10.089844 C 48.644531 10.449219 49.476562 9.839844 49.476562 11.042969 L 49.476562 15.851562 C 49.476562 16.96875 48.683594 16.65625 48.683594 16.929688 C 48.683594 17.019531 48.785156 17.050781 48.847656 17.050781 C 49.140625 17.050781 49.476562 17.007812 49.953125 17.007812 C 50.550781 17.007812 50.703125 17.050781 51.050781 17.050781 C 51.300781 17.050781 51.34375 17 51.34375 16.929688 C 51.34375 16.585938 50.277344 17.109375 50.277344 15.664062 Z M 39.964844 10.804688 C 39.953125 10.070312 39.144531 10.273438 39.144531 10.050781 C 39.144531 9.957031 39.164062 9.941406 39.246094 9.941406 C 39.621094 9.941406 39.984375 9.980469 40.359375 9.980469 C 40.671875 9.980469 40.988281 9.941406 41.304688 9.941406 C 41.464844 9.941406 41.496094 9.957031 41.496094 10.039062 C 41.496094 10.28125 40.765625 10.050781 40.765625 10.804688 L 40.765625 16.195312 C 40.765625 16.878906 41.667969 16.648438 41.667969 16.949219 C 41.667969 17.019531 41.636719 17.050781 41.464844 17.050781 C 41.234375 17.050781 40.796875 17.007812 40.359375 17.007812 C 39.742188 17.007812 39.527344 17.050781 39.386719 17.050781 C 39.203125 17.050781 39.175781 17 39.175781 16.898438 C 39.175781 16.605469 39.964844 16.941406 39.964844 15.945312 Z M 39.964844 10.804688 " fill-opacity="1" fill-rule="nonzero"/><g clip-path="url(#id30)"><path fill="#000000" d="M 103.332031 27.414062 C 103.332031 27.191406 103.410156 27 103.578125 26.847656 C 103.742188 26.683594 103.9375 26.605469 104.167969 26.609375 C 104.402344 26.605469 104.597656 26.683594 104.765625 26.847656 C 104.921875 26.996094 105.003906 27.179688 105.011719 27.394531 C 105.015625 27.613281 104.941406 27.800781 104.792969 27.957031 C 104.78125 27.964844 104.773438 27.976562 104.765625 27.984375 C 104.597656 28.144531 104.402344 28.222656 104.167969 28.21875 C 103.9375 28.226562 103.742188 28.144531 103.578125 27.984375 C 103.414062 27.832031 103.332031 27.640625 103.332031 27.414062 Z M 103.332031 27.414062 " fill-opacity="1" fill-rule="nonzero"/></g><g clip-path="url(#id31)"><path fill="#000000" d="M 100.210938 19.78125 L 100.878906 20.945312 C 100.640625 21.164062 100.472656 21.382812 100.378906 21.59375 C 100.28125 21.835938 100.234375 22.085938 100.238281 22.347656 C 100.238281 22.871094 100.402344 23.292969 100.730469 23.617188 C 101.054688 23.941406 101.472656 24.101562 101.984375 24.101562 C 102.480469 24.101562 102.882812 23.945312 103.199219 23.636719 C 103.511719 23.324219 103.667969 22.914062 103.667969 22.410156 C 103.667969 21.78125 103.445312 21.292969 103 20.945312 L 103.789062 19.839844 C 104.605469 20.441406 105.011719 21.285156 105.011719 22.375 C 105.011719 23.355469 104.707031 24.125 104.101562 24.679688 C 103.492188 25.234375 102.78125 25.511719 101.96875 25.511719 C 101.410156 25.515625 100.890625 25.382812 100.410156 25.109375 C 99.929688 24.835938 99.554688 24.457031 99.289062 23.976562 C 99.011719 23.472656 98.875 22.929688 98.882812 22.355469 C 98.882812 21.800781 98.996094 21.300781 99.226562 20.863281 C 99.460938 20.417969 99.785156 20.054688 100.210938 19.78125 Z M 100.210938 19.78125 " fill-opacity="1" fill-rule="nonzero"/></g><g clip-path="url(#id32)"><path fill="#000000" d="M 98.882812 15.898438 C 98.886719 15.363281 99.023438 14.867188 99.296875 14.410156 C 99.570312 13.949219 99.945312 13.589844 100.414062 13.328125 C 100.886719 13.066406 101.398438 12.9375 101.941406 12.9375 C 102.488281 12.9375 103.003906 13.066406 103.484375 13.332031 C 103.957031 13.585938 104.332031 13.941406 104.605469 14.402344 C 104.878906 14.863281 105.015625 15.359375 105.011719 15.894531 C 105.011719 16.695312 104.710938 17.375 104.117188 17.941406 C 103.523438 18.507812 102.800781 18.789062 101.949219 18.789062 C 101.039062 18.789062 100.28125 18.472656 99.675781 17.832031 C 99.144531 17.269531 98.882812 16.625 98.882812 15.898438 Z M 100.257812 15.875 C 100.25 16.308594 100.40625 16.671875 100.734375 16.960938 C 101.046875 17.253906 101.453125 17.398438 101.945312 17.398438 C 102.453125 17.398438 102.863281 17.253906 103.179688 16.96875 C 103.492188 16.683594 103.648438 16.320312 103.652344 15.878906 C 103.660156 15.441406 103.503906 15.078125 103.175781 14.785156 C 102.855469 14.496094 102.445312 14.347656 101.949219 14.347656 C 101.449219 14.347656 101.042969 14.492188 100.730469 14.777344 C 100.414062 15.0625 100.257812 15.429688 100.257812 15.875 Z M 100.257812 15.875 " fill-opacity="1" fill-rule="nonzero"/></g><path fill="#000000" d="M 99.03125 11.808594 L 99.03125 10.40625 L 99.703125 10.40625 C 99.4375 10.183594 99.234375 9.917969 99.085938 9.609375 C 98.945312 9.304688 98.878906 8.984375 98.882812 8.652344 C 98.878906 8.3125 98.964844 7.996094 99.148438 7.707031 C 99.328125 7.425781 99.589844 7.203125 99.933594 7.03125 C 99.601562 6.824219 99.339844 6.550781 99.148438 6.210938 C 98.96875 5.882812 98.878906 5.527344 98.882812 5.152344 C 98.875 4.777344 98.96875 4.425781 99.171875 4.105469 C 99.355469 3.8125 99.605469 3.59375 99.925781 3.457031 C 100.238281 3.324219 100.742188 3.257812 101.441406 3.257812 L 104.859375 3.257812 L 104.859375 4.667969 L 101.902344 4.667969 C 101.242188 4.667969 100.796875 4.746094 100.5625 4.90625 C 100.328125 5.0625 100.210938 5.296875 100.210938 5.613281 C 100.207031 5.851562 100.277344 6.066406 100.421875 6.257812 C 100.578125 6.457031 100.773438 6.59375 101.011719 6.675781 C 101.265625 6.769531 101.667969 6.816406 102.226562 6.816406 L 104.855469 6.816406 L 104.855469 8.226562 L 102.035156 8.226562 C 101.515625 8.226562 101.136719 8.261719 100.902344 8.335938 C 100.667969 8.410156 100.496094 8.519531 100.378906 8.667969 C 100.261719 8.828125 100.203125 9.003906 100.210938 9.203125 C 100.207031 9.4375 100.28125 9.652344 100.425781 9.835938 C 100.585938 10.039062 100.789062 10.183594 101.035156 10.265625 C 101.292969 10.359375 101.707031 10.40625 102.265625 10.40625 L 104.859375 10.40625 L 104.859375 11.804688 Z M 99.03125 11.808594 " fill-opacity="1" fill-rule="nonzero"/></svg>