<svg width="24" height="24" viewBox="0 0 24 24" fill="none" xmlns="http://www.w3.org/2000/svg">
<path d="M17.7703 10.0969C18.3187 8.56875 19.8984 4.14844 19.8984 2.73281C19.8984 1.48594 19.1625 0.440625 17.85 0.440625C15.7593 0.440625 13.8843 6.61406 13.2984 8.08594C12.8437 6.75 10.7156 0 8.84058 0C7.38277 0 6.69839 1.07344 6.69839 2.42344C6.69839 4.07812 8.30152 8.36719 8.88277 10.0172C8.58746 9.90938 8.26871 9.81562 7.94527 9.81562C6.84839 9.81562 5.68121 11.1797 5.68121 12.2812C5.68121 12.6984 5.91089 13.2844 6.05621 13.6734C4.32652 14.1422 3.66089 15.2953 3.66089 17.0344C3.65621 20.4187 6.86246 24 11.3718 24C16.9031 24 20.3437 19.8469 20.3437 14.4891C20.3437 12.4688 20.0203 10.6453 17.7703 10.0969ZM16.1109 5.0625C16.2984 4.48594 17.1 2.04844 17.85 2.04844C18.2531 2.04844 18.3609 2.46563 18.3609 2.79844C18.3609 3.69375 16.5515 8.63906 16.1531 9.73594L14.5593 9.45469L16.1109 5.0625ZM8.17027 2.26406C8.17027 1.70625 8.84996 0.121875 10.3406 4.47188L11.9625 9.17344C11.2312 9.1125 10.664 9.03281 10.3031 9.23906C9.79214 7.88906 8.17027 3.62812 8.17027 2.26406ZM8.06246 11.4375C9.43589 11.4375 11.2078 15.8719 11.2078 16.4719C11.2078 16.7109 10.9781 17.0062 10.7109 17.0062C9.73121 17.0062 7.10621 13.4016 7.10621 12.4266C7.11089 12.0656 7.70152 11.4375 8.06246 11.4375ZM16.7015 20.1703C15.3375 21.6703 13.5937 22.4484 11.5593 22.4484C8.77496 22.4484 6.57652 20.9203 5.51714 18.3094C4.71558 16.275 5.69527 15.1078 6.48277 15.1078C7.01714 15.1078 9.02808 17.9344 9.02808 18.5344C9.02808 18.7641 8.66714 18.9234 8.47964 18.9234C7.72496 18.9234 7.42964 18.1969 6.08433 16.5141C4.69214 17.9062 7.04527 20.5875 8.81714 20.5875C10.0406 20.5875 10.8375 19.4531 10.5984 18.6188C10.7718 18.6188 10.9875 18.6328 11.1468 18.5906C11.1984 19.8609 11.5734 21.375 13.1015 21.4828C13.1015 21.4406 13.1953 21.15 13.1953 21.1359C13.1953 20.3203 12.6984 19.6078 12.6984 18.7781C12.6984 17.4516 13.7156 16.1672 14.7468 15.4172C15.1218 15.1359 15.5765 14.9625 16.0171 14.8031C16.4718 14.6297 16.9546 14.4281 17.3015 14.0812C17.25 13.5562 17.0343 13.0922 16.5093 13.0922C15.2109 13.0922 10.8562 13.2797 10.8562 11.2313C10.8562 10.9172 10.8609 10.6172 11.6718 10.6172C13.1859 10.6172 17.0296 10.9922 18.1546 11.9813C19.0031 12.7359 19.2937 17.2875 16.7015 20.1703ZM12.0796 14.2641C12.5343 14.4094 13.0031 14.4516 13.4718 14.5453C13.125 14.7984 12.8156 15.1078 12.5203 15.4406C12.389 15.0422 12.2296 14.6531 12.0796 14.2641Z" fill="#98A2B3"/>
</svg>
