<svg width="145" height="38" viewBox="0 0 145 38" fill="none" xmlns="http://www.w3.org/2000/svg">
<g filter="url(#filter0_dd_4416_111832)">
<rect x="3.1" y="2.1" width="31.8" height="31.8" rx="7.9" fill="white"/>
<rect x="3.1" y="2.1" width="31.8" height="31.8" rx="7.9" fill="url(#paint0_linear_4416_111832)"/>
<path fill-rule="evenodd" clip-rule="evenodd" d="M19 4.03861C11.2895 4.03861 5.03885 10.2892 5.03885 17.9998C5.03885 25.7103 11.2895 31.9609 19 31.9609C26.7106 31.9609 32.9612 25.7103 32.9612 17.9998C32.9612 10.2892 26.7106 4.03861 19 4.03861ZM4.96118 17.9998C4.96118 10.2463 11.2466 3.96094 19 3.96094C26.7535 3.96094 33.0389 10.2463 33.0389 17.9998C33.0389 25.7532 26.7535 32.0386 19 32.0386C11.2466 32.0386 4.96118 25.7532 4.96118 17.9998Z" fill="#D0D5DD"/>
<path fill-rule="evenodd" clip-rule="evenodd" d="M19 14.0777C16.8338 14.0777 15.0777 15.8338 15.0777 18C15.0777 20.1662 16.8338 21.9223 19 21.9223C21.1662 21.9223 22.9223 20.1662 22.9223 18C22.9223 15.8338 21.1662 14.0777 19 14.0777ZM15 18C15 15.7909 16.7909 14 19 14C21.2091 14 23 15.7909 23 18C23 20.2091 21.2091 22 19 22C16.7909 22 15 20.2091 15 18Z" fill="#D0D5DD"/>
<path fill-rule="evenodd" clip-rule="evenodd" d="M19 15.3199C17.52 15.3199 16.3203 16.5196 16.3203 17.9995C16.3203 19.4794 17.52 20.6791 19 20.6791C20.4799 20.6791 21.6796 19.4794 21.6796 17.9995C21.6796 16.5196 20.4799 15.3199 19 15.3199ZM16.2427 17.9995C16.2427 16.4767 17.4772 15.2422 19 15.2422C20.5228 15.2422 21.7572 16.4767 21.7572 17.9995C21.7572 19.5223 20.5228 20.7568 19 20.7568C17.4772 20.7568 16.2427 19.5223 16.2427 17.9995Z" fill="#D0D5DD"/>
<path d="M18.9612 2H19.0389V34H18.9612V2Z" fill="#D0D5DD"/>
<path d="M35 17.9609L35 18.0386L3 18.0386L3 17.9609L35 17.9609Z" fill="#D0D5DD"/>
<path d="M29.6021 2H29.6797V34H29.6021V2Z" fill="#D0D5DD"/>
<path d="M13.6409 2H13.7185V34H13.6409V2Z" fill="#D0D5DD"/>
<path d="M24.2815 2H24.3592V34H24.2815V2Z" fill="#D0D5DD"/>
<path d="M8.32031 2H8.39798V34H8.32031V2Z" fill="#D0D5DD"/>
<path d="M35 28.6016L35 28.6792L3 28.6792L3 28.6016L35 28.6016Z" fill="#D0D5DD"/>
<path d="M35 12.6406L35 12.7183L3 12.7183L3 12.6406L35 12.6406Z" fill="#D0D5DD"/>
<path d="M35 23.2812L35 23.3589L3 23.3589L3 23.2812L35 23.2812Z" fill="#D0D5DD"/>
<path d="M35 7.32031L35 7.39798L3 7.39798L3 7.32031L35 7.32031Z" fill="#D0D5DD"/>
<g filter="url(#filter1_dd_4416_111832)">
<circle cx="19" cy="18" r="8" fill="url(#paint1_linear_4416_111832)"/>
</g>
<g filter="url(#filter2_b_4416_111832)">
<path d="M3 18H35V21.2C35 25.6804 35 27.9206 34.1281 29.6319C33.3611 31.1372 32.1372 32.3611 30.6319 33.1281C28.9206 34 26.6804 34 22.2 34H15.8C11.3196 34 9.07937 34 7.36808 33.1281C5.86278 32.3611 4.63893 31.1372 3.87195 29.6319C3 27.9206 3 25.6804 3 21.2V18Z" fill="white" fill-opacity="0.2"/>
</g>
<rect x="3.1" y="2.1" width="31.8" height="31.8" rx="7.9" stroke="#D0D5DD" stroke-width="0.2"/>
</g>
<path d="M54.0038 10.4546H56.6387V19.9574C56.6387 20.9991 56.3925 21.9153 55.9001 22.706C55.4124 23.4967 54.7258 24.1146 53.8404 24.5597C52.955 25 51.9204 25.2202 50.7367 25.2202C49.5483 25.2202 48.5113 25 47.6259 24.5597C46.7405 24.1146 46.0539 23.4967 45.5663 22.706C45.0786 21.9153 44.8347 20.9991 44.8347 19.9574V10.4546H47.4697V19.7373C47.4697 20.3433 47.6022 20.8831 47.8674 21.3566C48.1373 21.8301 48.5161 22.2017 49.0038 22.4716C49.4914 22.7368 50.0691 22.8694 50.7367 22.8694C51.4043 22.8694 51.982 22.7368 52.4697 22.4716C52.9621 22.2017 53.3409 21.8301 53.606 21.3566C53.8712 20.8831 54.0038 20.3433 54.0038 19.7373V10.4546Z" fill="white"/>
<path d="M61.9601 18.608V25H59.389V14.091H61.8464V15.9446H61.9743C62.2252 15.3339 62.6253 14.8485 63.1746 14.4887C63.7285 14.1288 64.4127 13.9489 65.2271 13.9489C65.98 13.9489 66.6357 14.1099 67.1944 14.4319C67.7579 14.7538 68.1935 15.2202 68.5013 15.831C68.8138 16.4418 68.9676 17.1828 68.9629 18.054V25H66.3919V18.4517C66.3919 17.7226 66.2025 17.152 65.8237 16.7401C65.4497 16.3282 64.9312 16.1222 64.2683 16.1222C63.8185 16.1222 63.4184 16.2216 63.068 16.4205C62.7224 16.6146 62.4501 16.8964 62.2513 17.2657C62.0571 17.635 61.9601 18.0824 61.9601 18.608Z" fill="white"/>
<path d="M77.024 14.091V16.0796H70.7527V14.091H77.024ZM72.301 11.4773H74.872V21.7188C74.872 22.0644 74.9241 22.3296 75.0283 22.5142C75.1372 22.6942 75.2792 22.8173 75.4544 22.8836C75.6296 22.9499 75.8237 22.983 76.0368 22.983C76.1978 22.983 76.3445 22.9712 76.4771 22.9475C76.6144 22.9238 76.7186 22.9025 76.7896 22.8836L77.2229 24.8935C77.0855 24.9409 76.889 24.9929 76.6334 25.0498C76.3824 25.1066 76.0747 25.1397 75.7101 25.1492C75.0661 25.1681 74.4861 25.0711 73.97 24.858C73.4539 24.6402 73.0444 24.304 72.7413 23.8495C72.443 23.3949 72.2962 22.8267 72.301 22.1449V11.4773Z" fill="white"/>
<path d="M79.1742 25V14.091H81.7452V25H79.1742ZM80.4668 12.5427C80.0596 12.5427 79.7092 12.4077 79.4157 12.1378C79.1221 11.8632 78.9753 11.5341 78.9753 11.1506C78.9753 10.7624 79.1221 10.4333 79.4157 10.1634C79.7092 9.88878 80.0596 9.75146 80.4668 9.75146C80.8787 9.75146 81.2291 9.88878 81.518 10.1634C81.8115 10.4333 81.9583 10.7624 81.9583 11.1506C81.9583 11.5341 81.8115 11.8632 81.518 12.1378C81.2291 12.4077 80.8787 12.5427 80.4668 12.5427Z" fill="white"/>
<path d="M89.8365 14.091V16.0796H83.5652V14.091H89.8365ZM85.1135 11.4773H87.6845V21.7188C87.6845 22.0644 87.7366 22.3296 87.8408 22.5142C87.9497 22.6942 88.0917 22.8173 88.2669 22.8836C88.4421 22.9499 88.6362 22.983 88.8493 22.983C89.0103 22.983 89.157 22.9712 89.2896 22.9475C89.4269 22.9238 89.5311 22.9025 89.6021 22.8836L90.0354 24.8935C89.898 24.9409 89.7015 24.9929 89.4459 25.0498C89.1949 25.1066 88.8872 25.1397 88.5226 25.1492C87.8786 25.1681 87.2986 25.0711 86.7825 24.858C86.2664 24.6402 85.8569 24.304 85.5538 23.8495C85.2555 23.3949 85.1087 22.8267 85.1135 22.1449V11.4773Z" fill="white"/>
<path d="M94.7921 10.4546V25H92.2211V10.4546H94.7921Z" fill="white"/>
<path d="M102.265 25.2131C101.172 25.2131 100.227 24.9858 99.4317 24.5313C98.6409 24.072 98.0325 23.4233 97.6064 22.5853C97.1802 21.7425 96.9672 20.7505 96.9672 19.6094C96.9672 18.4873 97.1802 17.5024 97.6064 16.6549C98.0373 15.8026 98.6386 15.1397 99.4104 14.6662C100.182 14.188 101.089 13.9489 102.131 13.9489C102.803 13.9489 103.437 14.0578 104.034 14.2756C104.635 14.4887 105.166 14.8201 105.625 15.2699C106.089 15.7197 106.453 16.2927 106.719 16.9887C106.984 17.68 107.116 18.5038 107.116 19.4603V20.2486H98.1746V18.5157H104.652C104.647 18.0232 104.541 17.5853 104.332 17.2017C104.124 16.8135 103.833 16.5081 103.459 16.2856C103.089 16.063 102.658 15.9517 102.166 15.9517C101.64 15.9517 101.179 16.0796 100.781 16.3353C100.383 16.5862 100.073 16.9177 99.8507 17.3296C99.6329 17.7368 99.5216 18.1842 99.5169 18.6719V20.1847C99.5169 20.8192 99.6329 21.3637 99.8649 21.8182C100.097 22.268 100.421 22.6137 100.838 22.8552C101.255 23.0919 101.742 23.2103 102.301 23.2103C102.675 23.2103 103.014 23.1582 103.317 23.054C103.62 22.9451 103.882 22.7865 104.105 22.5782C104.327 22.3698 104.496 22.1118 104.609 21.804L107.01 22.0739C106.858 22.7084 106.569 23.2624 106.143 23.7358C105.722 24.2046 105.182 24.5692 104.524 24.8296C103.866 25.0853 103.113 25.2131 102.265 25.2131Z" fill="white"/>
<path d="M113.34 25.1918C112.483 25.1918 111.716 24.9716 111.039 24.5313C110.361 24.091 109.826 23.4517 109.433 22.6137C109.04 21.7756 108.844 20.7576 108.844 19.5597C108.844 18.3476 109.043 17.3249 109.441 16.4915C109.843 15.6535 110.385 15.0214 111.067 14.5952C111.749 14.1643 112.509 13.9489 113.347 13.9489C113.986 13.9489 114.512 14.0578 114.923 14.2756C115.335 14.4887 115.662 14.7467 115.904 15.0498C116.145 15.3481 116.332 15.6298 116.465 15.8949H116.571V10.4546H119.149V25H116.621V23.2813H116.465C116.332 23.5464 116.14 23.8282 115.889 24.1265C115.638 24.42 115.307 24.671 114.895 24.8793C114.483 25.0876 113.965 25.1918 113.34 25.1918ZM114.057 23.0824C114.602 23.0824 115.066 22.9357 115.449 22.6421C115.833 22.3438 116.124 21.9295 116.323 21.3992C116.521 20.8689 116.621 20.251 116.621 19.5455C116.621 18.84 116.521 18.2268 116.323 17.706C116.129 17.1852 115.84 16.7803 115.456 16.4915C115.077 16.2027 114.611 16.0583 114.057 16.0583C113.484 16.0583 113.006 16.2074 112.622 16.5057C112.239 16.804 111.95 17.216 111.756 17.7415C111.562 18.2671 111.465 18.8684 111.465 19.5455C111.465 20.2273 111.562 20.8357 111.756 21.3708C111.955 21.9011 112.246 22.3201 112.629 22.6279C113.018 22.9309 113.494 23.0824 114.057 23.0824Z" fill="white"/>
<path d="M136.133 10.4546H138.768V19.9574C138.768 20.9991 138.521 21.9153 138.029 22.706C137.541 23.4967 136.855 24.1146 135.969 24.5597C135.084 25 134.049 25.2202 132.866 25.2202C131.677 25.2202 130.64 25 129.755 24.5597C128.869 24.1146 128.183 23.4967 127.695 22.706C127.207 21.9153 126.964 20.9991 126.964 19.9574V10.4546H129.599V19.7373C129.599 20.3433 129.731 20.8831 129.996 21.3566C130.266 21.8301 130.645 22.2017 131.133 22.4716C131.62 22.7368 132.198 22.8694 132.866 22.8694C133.533 22.8694 134.111 22.7368 134.599 22.4716C135.091 22.2017 135.47 21.8301 135.735 21.3566C136 20.8831 136.133 20.3433 136.133 19.7373V10.4546Z" fill="white"/>
<path d="M144.267 10.4546V25H141.632V10.4546H144.267Z" fill="white"/>
<defs>
<filter id="filter0_dd_4416_111832" x="0" y="0" width="38" height="38" filterUnits="userSpaceOnUse" color-interpolation-filters="sRGB">
<feFlood flood-opacity="0" result="BackgroundImageFix"/>
<feColorMatrix in="SourceAlpha" type="matrix" values="0 0 0 0 0 0 0 0 0 0 0 0 0 0 0 0 0 0 127 0" result="hardAlpha"/>
<feOffset dy="1"/>
<feGaussianBlur stdDeviation="1"/>
<feColorMatrix type="matrix" values="0 0 0 0 0.0627451 0 0 0 0 0.0941176 0 0 0 0 0.156863 0 0 0 0.06 0"/>
<feBlend mode="normal" in2="BackgroundImageFix" result="effect1_dropShadow_4416_111832"/>
<feColorMatrix in="SourceAlpha" type="matrix" values="0 0 0 0 0 0 0 0 0 0 0 0 0 0 0 0 0 0 127 0" result="hardAlpha"/>
<feOffset dy="1"/>
<feGaussianBlur stdDeviation="1.5"/>
<feColorMatrix type="matrix" values="0 0 0 0 0.0627451 0 0 0 0 0.0941176 0 0 0 0 0.156863 0 0 0 0.1 0"/>
<feBlend mode="normal" in2="effect1_dropShadow_4416_111832" result="effect2_dropShadow_4416_111832"/>
<feBlend mode="normal" in="SourceGraphic" in2="effect2_dropShadow_4416_111832" result="shape"/>
</filter>
<filter id="filter1_dd_4416_111832" x="8" y="8" width="22" height="22" filterUnits="userSpaceOnUse" color-interpolation-filters="sRGB">
<feFlood flood-opacity="0" result="BackgroundImageFix"/>
<feColorMatrix in="SourceAlpha" type="matrix" values="0 0 0 0 0 0 0 0 0 0 0 0 0 0 0 0 0 0 127 0" result="hardAlpha"/>
<feOffset dy="1"/>
<feGaussianBlur stdDeviation="1"/>
<feColorMatrix type="matrix" values="0 0 0 0 0.0627451 0 0 0 0 0.0941176 0 0 0 0 0.156863 0 0 0 0.06 0"/>
<feBlend mode="normal" in2="BackgroundImageFix" result="effect1_dropShadow_4416_111832"/>
<feColorMatrix in="SourceAlpha" type="matrix" values="0 0 0 0 0 0 0 0 0 0 0 0 0 0 0 0 0 0 127 0" result="hardAlpha"/>
<feOffset dy="1"/>
<feGaussianBlur stdDeviation="1.5"/>
<feColorMatrix type="matrix" values="0 0 0 0 0.0627451 0 0 0 0 0.0941176 0 0 0 0 0.156863 0 0 0 0.1 0"/>
<feBlend mode="normal" in2="effect1_dropShadow_4416_111832" result="effect2_dropShadow_4416_111832"/>
<feBlend mode="normal" in="SourceGraphic" in2="effect2_dropShadow_4416_111832" result="shape"/>
</filter>
<filter id="filter2_b_4416_111832" x="-2" y="13" width="42" height="26" filterUnits="userSpaceOnUse" color-interpolation-filters="sRGB">
<feFlood flood-opacity="0" result="BackgroundImageFix"/>
<feGaussianBlur in="BackgroundImage" stdDeviation="2.5"/>
<feComposite in2="SourceAlpha" operator="in" result="effect1_backgroundBlur_4416_111832"/>
<feBlend mode="normal" in="SourceGraphic" in2="effect1_backgroundBlur_4416_111832" result="shape"/>
</filter>
<linearGradient id="paint0_linear_4416_111832" x1="19" y1="2" x2="19" y2="34" gradientUnits="userSpaceOnUse">
<stop stop-color="white"/>
<stop offset="1" stop-color="#D0D5DD"/>
</linearGradient>
<linearGradient id="paint1_linear_4416_111832" x1="15" y1="26" x2="23" y2="10" gradientUnits="userSpaceOnUse">
<stop stop-color="#53389E"/>
<stop offset="1" stop-color="#6941C6"/>
</linearGradient>
</defs>
</svg>
