<svg width="145" height="38" viewBox="0 0 145 38" fill="none" xmlns="http://www.w3.org/2000/svg">
<g filter="url(#filter0_dd_4415_85191)">
<rect x="3.1" y="2.1" width="31.8" height="31.8" rx="7.9" fill="white"/>
<rect x="3.1" y="2.1" width="31.8" height="31.8" rx="7.9" fill="url(#paint0_linear_4415_85191)"/>
<path fill-rule="evenodd" clip-rule="evenodd" d="M18.9998 4.03885C11.2892 4.03885 5.03861 10.2895 5.03861 18C5.03861 25.7106 11.2892 31.9612 18.9998 31.9612C26.7103 31.9612 32.9609 25.7106 32.9609 18C32.9609 10.2895 26.7103 4.03885 18.9998 4.03885ZM4.96094 18C4.96094 10.2466 11.2463 3.96118 18.9998 3.96118C26.7532 3.96118 33.0386 10.2466 33.0386 18C33.0386 25.7535 26.7532 32.0389 18.9998 32.0389C11.2463 32.0389 4.96094 25.7535 4.96094 18Z" fill="#D0D5DD"/>
<path fill-rule="evenodd" clip-rule="evenodd" d="M19 14.0779C16.8338 14.0779 15.0777 15.834 15.0777 18.0002C15.0777 20.1665 16.8338 21.9226 19 21.9226C21.1662 21.9226 22.9223 20.1665 22.9223 18.0002C22.9223 15.834 21.1662 14.0779 19 14.0779ZM15 18.0002C15 15.7911 16.7909 14.0002 19 14.0002C21.2091 14.0002 23 15.7911 23 18.0002C23 20.2094 21.2091 22.0002 19 22.0002C16.7909 22.0002 15 20.2094 15 18.0002Z" fill="#D0D5DD"/>
<path fill-rule="evenodd" clip-rule="evenodd" d="M18.9995 15.3201C17.5196 15.3201 16.3199 16.5198 16.3199 17.9997C16.3199 19.4796 17.5196 20.6793 18.9995 20.6793C20.4794 20.6793 21.6791 19.4796 21.6791 17.9997C21.6791 16.5198 20.4794 15.3201 18.9995 15.3201ZM16.2422 17.9997C16.2422 16.4769 17.4767 15.2424 18.9995 15.2424C20.5223 15.2424 21.7568 16.4769 21.7568 17.9997C21.7568 19.5225 20.5223 20.757 18.9995 20.757C17.4767 20.757 16.2422 19.5225 16.2422 17.9997Z" fill="#D0D5DD"/>
<path d="M18.9609 2H19.0386V34H18.9609V2Z" fill="#D0D5DD"/>
<path d="M35 17.9609L35 18.0386L3 18.0386L3 17.9609L35 17.9609Z" fill="#D0D5DD"/>
<path d="M29.6016 2H29.6792V34H29.6016V2Z" fill="#D0D5DD"/>
<path d="M13.6406 2H13.7183V34H13.6406V2Z" fill="#D0D5DD"/>
<path d="M24.2812 2H24.3589V34H24.2812V2Z" fill="#D0D5DD"/>
<path d="M8.32031 2H8.39798V34H8.32031V2Z" fill="#D0D5DD"/>
<path d="M35 28.6016L35 28.6792L3 28.6792L3 28.6016L35 28.6016Z" fill="#D0D5DD"/>
<path d="M35 12.6406L35 12.7183L3 12.7183L3 12.6406L35 12.6406Z" fill="#D0D5DD"/>
<path d="M35 23.2812L35 23.3589L3 23.3589L3 23.2812L35 23.2812Z" fill="#D0D5DD"/>
<path d="M35 7.32031L35 7.39798L3 7.39798L3 7.32031L35 7.32031Z" fill="#D0D5DD"/>
<g filter="url(#filter1_dd_4415_85191)">
<circle cx="19" cy="18" r="8" fill="url(#paint1_linear_4415_85191)"/>
</g>
<g filter="url(#filter2_b_4415_85191)">
<path d="M3 18H35V21.2C35 25.6804 35 27.9206 34.1281 29.6319C33.3611 31.1372 32.1372 32.3611 30.6319 33.1281C28.9206 34 26.6804 34 22.2 34H15.8C11.3196 34 9.07937 34 7.36808 33.1281C5.86278 32.3611 4.63893 31.1372 3.87195 29.6319C3 27.9206 3 25.6804 3 21.2V18Z" fill="white" fill-opacity="0.2"/>
</g>
<rect x="3.1" y="2.1" width="31.8" height="31.8" rx="7.9" stroke="#D0D5DD" stroke-width="0.2"/>
</g>
<path d="M54.003 10.4545H56.638V19.9574C56.638 20.999 56.3917 21.9152 55.8993 22.7059C55.4116 23.4967 54.7251 24.1146 53.8397 24.5596C52.9542 25 51.9197 25.2202 50.736 25.2202C49.5475 25.2202 48.5106 25 47.6252 24.5596C46.7398 24.1146 46.0532 23.4967 45.5655 22.7059C45.0778 21.9152 44.834 20.999 44.834 19.9574V10.4545H47.4689V19.7372C47.4689 20.3433 47.6015 20.883 47.8667 21.3565C48.1365 21.83 48.5153 22.2017 49.003 22.4716C49.4907 22.7367 50.0684 22.8693 50.736 22.8693C51.4036 22.8693 51.9812 22.7367 52.4689 22.4716C52.9614 22.2017 53.3401 21.83 53.6053 21.3565C53.8704 20.883 54.003 20.3433 54.003 19.7372V10.4545Z" fill="#101828"/>
<path d="M61.9593 18.6079V25H59.3883V14.0909H61.8457V15.9446H61.9735C62.2245 15.3338 62.6246 14.8485 63.1738 14.4886C63.7278 14.1288 64.412 13.9488 65.2264 13.9488C65.9792 13.9488 66.635 14.1098 67.1937 14.4318C67.7572 14.7538 68.1928 15.2202 68.5005 15.8309C68.813 16.4417 68.9669 17.1827 68.9622 18.054V25H66.3912V18.4517C66.3912 17.7225 66.2018 17.152 65.823 16.74C65.4489 16.3281 64.9305 16.1221 64.2676 16.1221C63.8178 16.1221 63.4177 16.2216 63.0673 16.4204C62.7217 16.6146 62.4494 16.8963 62.2505 17.2656C62.0564 17.6349 61.9593 18.0824 61.9593 18.6079Z" fill="#101828"/>
<path d="M77.0233 14.0909V16.0795H70.752V14.0909H77.0233ZM72.3002 11.4773H74.8713V21.7187C74.8713 22.0644 74.9234 22.3295 75.0275 22.5142C75.1364 22.6941 75.2785 22.8172 75.4537 22.8835C75.6288 22.9498 75.823 22.9829 76.036 22.9829C76.197 22.9829 76.3438 22.9711 76.4764 22.9474C76.6137 22.9238 76.7179 22.9024 76.7889 22.8835L77.2221 24.8934C77.0848 24.9408 76.8883 24.9929 76.6326 25.0497C76.3817 25.1065 76.0739 25.1397 75.7093 25.1491C75.0654 25.1681 74.4854 25.071 73.9693 24.8579C73.4532 24.6401 73.0436 24.304 72.7406 23.8494C72.4423 23.3949 72.2955 22.8267 72.3002 22.1449V11.4773Z" fill="#101828"/>
<path d="M79.1735 25V14.0909H81.7445V25H79.1735ZM80.4661 12.5426C80.0589 12.5426 79.7085 12.4077 79.415 12.1378C79.1214 11.8631 78.9746 11.5341 78.9746 11.1506C78.9746 10.7623 79.1214 10.4332 79.415 10.1633C79.7085 9.88871 80.0589 9.7514 80.4661 9.7514C80.878 9.7514 81.2284 9.88871 81.5172 10.1633C81.8108 10.4332 81.9576 10.7623 81.9576 11.1506C81.9576 11.5341 81.8108 11.8631 81.5172 12.1378C81.2284 12.4077 80.878 12.5426 80.4661 12.5426Z" fill="#101828"/>
<path d="M89.8358 14.0909V16.0795H83.5645V14.0909H89.8358ZM85.1128 11.4773H87.6838V21.7187C87.6838 22.0644 87.7359 22.3295 87.84 22.5142C87.9489 22.6941 88.091 22.8172 88.2662 22.8835C88.4413 22.9498 88.6355 22.9829 88.8485 22.9829C89.0095 22.9829 89.1563 22.9711 89.2889 22.9474C89.4262 22.9238 89.5304 22.9024 89.6014 22.8835L90.0346 24.8934C89.8973 24.9408 89.7008 24.9929 89.4451 25.0497C89.1942 25.1065 88.8864 25.1397 88.5218 25.1491C87.8779 25.1681 87.2979 25.071 86.7818 24.8579C86.2657 24.6401 85.8561 24.304 85.5531 23.8494C85.2548 23.3949 85.108 22.8267 85.1128 22.1449V11.4773Z" fill="#101828"/>
<path d="M94.7914 10.4545V25H92.2203V10.4545H94.7914Z" fill="#101828"/>
<path d="M102.265 25.2131C101.171 25.2131 100.226 24.9858 99.4309 24.5312C98.6402 24.072 98.0318 23.4233 97.6056 22.5852C97.1795 21.7424 96.9664 20.7505 96.9664 19.6094C96.9664 18.4872 97.1795 17.5024 97.6056 16.6548C98.0365 15.8025 98.6378 15.1397 99.4096 14.6662C100.181 14.188 101.088 13.9488 102.13 13.9488C102.802 13.9488 103.437 14.0577 104.033 14.2756C104.635 14.4886 105.165 14.8201 105.624 15.2699C106.088 15.7197 106.453 16.2926 106.718 16.9886C106.983 17.6799 107.116 18.5038 107.116 19.4602V20.2486H98.1738V18.5156H104.651C104.646 18.0232 104.54 17.5852 104.332 17.2017C104.123 16.8134 103.832 16.508 103.458 16.2855C103.089 16.063 102.658 15.9517 102.165 15.9517C101.64 15.9517 101.178 16.0795 100.78 16.3352C100.383 16.5862 100.073 16.9176 99.85 17.3295C99.6322 17.7367 99.5209 18.1842 99.5162 18.6719V20.1846C99.5162 20.8191 99.6322 21.3636 99.8642 21.8182C100.096 22.268 100.421 22.6136 100.837 22.8551C101.254 23.0918 101.742 23.2102 102.3 23.2102C102.674 23.2102 103.013 23.1581 103.316 23.054C103.619 22.9451 103.882 22.7864 104.104 22.5781C104.327 22.3698 104.495 22.1117 104.608 21.804L107.009 22.0738C106.858 22.7083 106.569 23.2623 106.143 23.7358C105.721 24.2045 105.181 24.5691 104.523 24.8295C103.865 25.0852 103.112 25.2131 102.265 25.2131Z" fill="#101828"/>
<path d="M113.339 25.1917C112.482 25.1917 111.715 24.9716 111.038 24.5312C110.361 24.0909 109.826 23.4517 109.433 22.6136C109.04 21.7756 108.843 20.7576 108.843 19.5596C108.843 18.3475 109.042 17.3248 109.44 16.4915C109.842 15.6534 110.384 15.0213 111.066 14.5952C111.748 14.1643 112.508 13.9488 113.346 13.9488C113.985 13.9488 114.511 14.0577 114.923 14.2756C115.335 14.4886 115.661 14.7467 115.903 15.0497C116.144 15.348 116.331 15.6297 116.464 15.8949H116.57V10.4545H119.149V25H116.62V23.2812H116.464C116.331 23.5464 116.14 23.8281 115.889 24.1264C115.638 24.42 115.306 24.6709 114.894 24.8792C114.482 25.0876 113.964 25.1917 113.339 25.1917ZM114.056 23.0824C114.601 23.0824 115.065 22.9356 115.448 22.642C115.832 22.3437 116.123 21.9294 116.322 21.3991C116.521 20.8688 116.62 20.2509 116.62 19.5454C116.62 18.8399 116.521 18.2268 116.322 17.7059C116.128 17.1851 115.839 16.7803 115.455 16.4915C115.077 16.2026 114.61 16.0582 114.056 16.0582C113.483 16.0582 113.005 16.2074 112.622 16.5057C112.238 16.804 111.949 17.2159 111.755 17.7415C111.561 18.267 111.464 18.8684 111.464 19.5454C111.464 20.2273 111.561 20.8357 111.755 21.3707C111.954 21.901 112.245 22.3201 112.629 22.6278C113.017 22.9309 113.493 23.0824 114.056 23.0824Z" fill="#101828"/>
<path d="M136.132 10.4545H138.767V19.9574C138.767 20.999 138.521 21.9152 138.028 22.7059C137.541 23.4967 136.854 24.1146 135.969 24.5596C135.083 25 134.049 25.2202 132.865 25.2202C131.676 25.2202 130.639 25 129.754 24.5596C128.869 24.1146 128.182 23.4967 127.694 22.7059C127.207 21.9152 126.963 20.999 126.963 19.9574V10.4545H129.598V19.7372C129.598 20.3433 129.73 20.883 129.996 21.3565C130.265 21.83 130.644 22.2017 131.132 22.4716C131.62 22.7367 132.197 22.8693 132.865 22.8693C133.532 22.8693 134.11 22.7367 134.598 22.4716C135.09 22.2017 135.469 21.83 135.734 21.3565C135.999 20.883 136.132 20.3433 136.132 19.7372V10.4545Z" fill="#101828"/>
<path d="M144.266 10.4545V25H141.631V10.4545H144.266Z" fill="#101828"/>
<defs>
<filter id="filter0_dd_4415_85191" x="0" y="0" width="38" height="38" filterUnits="userSpaceOnUse" color-interpolation-filters="sRGB">
<feFlood flood-opacity="0" result="BackgroundImageFix"/>
<feColorMatrix in="SourceAlpha" type="matrix" values="0 0 0 0 0 0 0 0 0 0 0 0 0 0 0 0 0 0 127 0" result="hardAlpha"/>
<feOffset dy="1"/>
<feGaussianBlur stdDeviation="1"/>
<feColorMatrix type="matrix" values="0 0 0 0 0.0627451 0 0 0 0 0.0941176 0 0 0 0 0.156863 0 0 0 0.06 0"/>
<feBlend mode="normal" in2="BackgroundImageFix" result="effect1_dropShadow_4415_85191"/>
<feColorMatrix in="SourceAlpha" type="matrix" values="0 0 0 0 0 0 0 0 0 0 0 0 0 0 0 0 0 0 127 0" result="hardAlpha"/>
<feOffset dy="1"/>
<feGaussianBlur stdDeviation="1.5"/>
<feColorMatrix type="matrix" values="0 0 0 0 0.0627451 0 0 0 0 0.0941176 0 0 0 0 0.156863 0 0 0 0.1 0"/>
<feBlend mode="normal" in2="effect1_dropShadow_4415_85191" result="effect2_dropShadow_4415_85191"/>
<feBlend mode="normal" in="SourceGraphic" in2="effect2_dropShadow_4415_85191" result="shape"/>
</filter>
<filter id="filter1_dd_4415_85191" x="8" y="8" width="22" height="22" filterUnits="userSpaceOnUse" color-interpolation-filters="sRGB">
<feFlood flood-opacity="0" result="BackgroundImageFix"/>
<feColorMatrix in="SourceAlpha" type="matrix" values="0 0 0 0 0 0 0 0 0 0 0 0 0 0 0 0 0 0 127 0" result="hardAlpha"/>
<feOffset dy="1"/>
<feGaussianBlur stdDeviation="1"/>
<feColorMatrix type="matrix" values="0 0 0 0 0.0627451 0 0 0 0 0.0941176 0 0 0 0 0.156863 0 0 0 0.06 0"/>
<feBlend mode="normal" in2="BackgroundImageFix" result="effect1_dropShadow_4415_85191"/>
<feColorMatrix in="SourceAlpha" type="matrix" values="0 0 0 0 0 0 0 0 0 0 0 0 0 0 0 0 0 0 127 0" result="hardAlpha"/>
<feOffset dy="1"/>
<feGaussianBlur stdDeviation="1.5"/>
<feColorMatrix type="matrix" values="0 0 0 0 0.0627451 0 0 0 0 0.0941176 0 0 0 0 0.156863 0 0 0 0.1 0"/>
<feBlend mode="normal" in2="effect1_dropShadow_4415_85191" result="effect2_dropShadow_4415_85191"/>
<feBlend mode="normal" in="SourceGraphic" in2="effect2_dropShadow_4415_85191" result="shape"/>
</filter>
<filter id="filter2_b_4415_85191" x="-2" y="13" width="42" height="26" filterUnits="userSpaceOnUse" color-interpolation-filters="sRGB">
<feFlood flood-opacity="0" result="BackgroundImageFix"/>
<feGaussianBlur in="BackgroundImage" stdDeviation="2.5"/>
<feComposite in2="SourceAlpha" operator="in" result="effect1_backgroundBlur_4415_85191"/>
<feBlend mode="normal" in="SourceGraphic" in2="effect1_backgroundBlur_4415_85191" result="shape"/>
</filter>
<linearGradient id="paint0_linear_4415_85191" x1="19" y1="2" x2="19" y2="34" gradientUnits="userSpaceOnUse">
<stop stop-color="white"/>
<stop offset="1" stop-color="#D0D5DD"/>
</linearGradient>
<linearGradient id="paint1_linear_4415_85191" x1="15" y1="26" x2="23" y2="10" gradientUnits="userSpaceOnUse">
<stop stop-color="#53389E"/>
<stop offset="1" stop-color="#6941C6"/>
</linearGradient>
</defs>
</svg>
