<svg xmlns="http://www.w3.org/2000/svg" xmlns:xlink="http://www.w3.org/1999/xlink" width="500" zoomAndPan="magnify" viewBox="0 0 375 374.999991" height="500" preserveAspectRatio="xMidYMid meet" version="1.0"><defs><g/></defs><g fill="#000000" fill-opacity="1"><g transform="translate(35.952387, 177.866883)"><g><path d="M 24.859375 -46.75 L 24.859375 -65.109375 L 41.03125 -65.109375 C 42.5625 -65.109375 44.039062 -64.976562 45.46875 -64.71875 C 46.90625 -64.46875 48.171875 -64.007812 49.265625 -63.34375 C 50.367188 -62.6875 51.25 -61.769531 51.90625 -60.59375 C 52.570312 -59.425781 52.90625 -57.925781 52.90625 -56.09375 C 52.90625 -52.789062 51.914062 -50.40625 49.9375 -48.9375 C 47.957031 -47.476562 45.425781 -46.75 42.34375 -46.75 Z M 7.59375 -78.53125 L 7.59375 0 L 45.640625 0 C 49.160156 0 52.585938 -0.4375 55.921875 -1.3125 C 59.265625 -2.195312 62.234375 -3.554688 64.828125 -5.390625 C 67.429688 -7.222656 69.503906 -9.585938 71.046875 -12.484375 C 72.585938 -15.378906 73.359375 -18.804688 73.359375 -22.765625 C 73.359375 -27.679688 72.164062 -31.878906 69.78125 -35.359375 C 67.394531 -38.835938 63.785156 -41.273438 58.953125 -42.671875 C 62.472656 -44.359375 65.128906 -46.519531 66.921875 -49.15625 C 68.722656 -51.800781 69.625 -55.101562 69.625 -59.0625 C 69.625 -62.726562 69.015625 -65.804688 67.796875 -68.296875 C 66.585938 -70.796875 64.882812 -72.796875 62.6875 -74.296875 C 60.488281 -75.796875 57.847656 -76.875 54.765625 -77.53125 C 51.691406 -78.195312 48.285156 -78.53125 44.546875 -78.53125 Z M 24.859375 -13.421875 L 24.859375 -34.96875 L 43.65625 -34.96875 C 47.394531 -34.96875 50.398438 -34.109375 52.671875 -32.390625 C 54.953125 -30.671875 56.09375 -27.789062 56.09375 -23.75 C 56.09375 -21.695312 55.742188 -20.007812 55.046875 -18.6875 C 54.347656 -17.375 53.410156 -16.332031 52.234375 -15.5625 C 51.066406 -14.789062 49.710938 -14.238281 48.171875 -13.90625 C 46.628906 -13.582031 45.015625 -13.421875 43.328125 -13.421875 Z M 24.859375 -13.421875 "/></g></g></g><g fill="#000000" fill-opacity="1"><g transform="translate(113.370405, 177.866883)"><g><path d="M 27.390625 -30.359375 L 37.609375 -59.171875 L 37.828125 -59.171875 L 47.734375 -30.359375 Z M 29.03125 -78.53125 L -0.65625 0 L 16.71875 0 L 22.875 -17.484375 L 52.25 -17.484375 L 58.1875 0 L 76.109375 0 L 46.75 -78.53125 Z M 29.03125 -78.53125 "/></g></g></g><g fill="#000000" fill-opacity="1"><g transform="translate(188.699017, 177.866883)"><g><path d="M 7.59375 -78.53125 L 7.59375 0 L 24.859375 0 L 24.859375 -25.296875 L 34.75 -35.3125 L 58.40625 0 L 80.0625 0 L 46.40625 -47.515625 L 77.09375 -78.53125 L 55.546875 -78.53125 L 24.859375 -45.96875 L 24.859375 -78.53125 Z M 7.59375 -78.53125 "/></g></g></g><g fill="#000000" fill-opacity="1"><g transform="translate(268.096461, 177.866883)"><g><path d="M 27.390625 -30.359375 L 37.609375 -59.171875 L 37.828125 -59.171875 L 47.734375 -30.359375 Z M 29.03125 -78.53125 L -0.65625 0 L 16.71875 0 L 22.875 -17.484375 L 52.25 -17.484375 L 58.1875 0 L 76.109375 0 L 46.75 -78.53125 Z M 29.03125 -78.53125 "/></g></g></g><g fill="#000000" fill-opacity="1"><g transform="translate(32.870356, 284.366876)"><g><path d="M 7.59375 -78.53125 L 7.59375 0 L 23.75 0 L 23.75 -52.578125 L 23.984375 -52.578125 L 56.640625 0 L 73.90625 0 L 73.90625 -78.53125 L 57.734375 -78.53125 L 57.734375 -25.84375 L 57.515625 -25.84375 L 24.75 -78.53125 Z M 7.59375 -78.53125 "/></g></g></g><g fill="#000000" fill-opacity="1"><g transform="translate(114.357217, 284.366876)"><g><path d="M 27.390625 -30.359375 L 37.609375 -59.171875 L 37.828125 -59.171875 L 47.734375 -30.359375 Z M 29.03125 -78.53125 L -0.65625 0 L 16.71875 0 L 22.875 -17.484375 L 52.25 -17.484375 L 58.1875 0 L 76.109375 0 L 46.75 -78.53125 Z M 29.03125 -78.53125 "/></g></g></g><g fill="#000000" fill-opacity="1"><g transform="translate(189.685829, 284.366876)"><g><path d="M 2.53125 -13.640625 L 2.53125 0 L 68.734375 0 L 68.734375 -14.515625 L 25.515625 -14.515625 L 67.640625 -64.890625 L 67.640625 -78.53125 L 5.828125 -78.53125 L 5.828125 -64.015625 L 44.65625 -64.015625 Z M 2.53125 -13.640625 "/></g></g></g><g fill="#000000" fill-opacity="1"><g transform="translate(260.945598, 284.366876)"><g><path d="M 21.453125 -38.9375 C 21.453125 -42.382812 21.832031 -45.71875 22.59375 -48.9375 C 23.363281 -52.164062 24.59375 -55.046875 26.28125 -57.578125 C 27.96875 -60.109375 30.164062 -62.125 32.875 -63.625 C 35.59375 -65.125 38.894531 -65.875 42.78125 -65.875 C 46.664062 -65.875 49.960938 -65.125 52.671875 -63.625 C 55.390625 -62.125 57.59375 -60.109375 59.28125 -57.578125 C 60.96875 -55.046875 62.195312 -52.164062 62.96875 -48.9375 C 63.738281 -45.71875 64.125 -42.382812 64.125 -38.9375 C 64.125 -35.632812 63.738281 -32.425781 62.96875 -29.3125 C 62.195312 -26.195312 60.96875 -23.390625 59.28125 -20.890625 C 57.59375 -18.398438 55.390625 -16.398438 52.671875 -14.890625 C 49.960938 -13.390625 46.664062 -12.640625 42.78125 -12.640625 C 38.894531 -12.640625 35.59375 -13.390625 32.875 -14.890625 C 30.164062 -16.398438 27.96875 -18.398438 26.28125 -20.890625 C 24.59375 -23.390625 23.363281 -26.195312 22.59375 -29.3125 C 21.832031 -32.425781 21.453125 -35.632812 21.453125 -38.9375 Z M 4.171875 -38.9375 C 4.171875 -33.21875 5.050781 -27.878906 6.8125 -22.921875 C 8.570312 -17.972656 11.101562 -13.664062 14.40625 -10 C 17.707031 -6.34375 21.757812 -3.46875 26.5625 -1.375 C 31.363281 0.71875 36.769531 1.765625 42.78125 1.765625 C 48.863281 1.765625 54.285156 0.71875 59.046875 -1.375 C 63.816406 -3.46875 67.851562 -6.34375 71.15625 -10 C 74.457031 -13.664062 76.988281 -17.972656 78.75 -22.921875 C 80.507812 -27.878906 81.390625 -33.21875 81.390625 -38.9375 C 81.390625 -44.800781 80.507812 -50.242188 78.75 -55.265625 C 76.988281 -60.285156 74.457031 -64.664062 71.15625 -68.40625 C 67.851562 -72.144531 63.816406 -75.078125 59.046875 -77.203125 C 54.285156 -79.335938 48.863281 -80.40625 42.78125 -80.40625 C 36.769531 -80.40625 31.363281 -79.335938 26.5625 -77.203125 C 21.757812 -75.078125 17.707031 -72.144531 14.40625 -68.40625 C 11.101562 -64.664062 8.570312 -60.285156 6.8125 -55.265625 C 5.050781 -50.242188 4.171875 -44.800781 4.171875 -38.9375 Z M 4.171875 -38.9375 "/></g></g></g><g fill="#000000" fill-opacity="1"><g transform="translate(202.46044, 347.769851)"><g><path d="M 6.140625 -3.59375 L 6.140625 -15.828125 L 9.1875 -15.828125 C 10.238281 -15.828125 11.125 -15.675781 11.84375 -15.375 C 12.5625 -15.070312 13.132812 -14.640625 13.5625 -14.078125 C 14 -13.515625 14.3125 -12.835938 14.5 -12.046875 C 14.695312 -11.265625 14.796875 -10.382812 14.796875 -9.40625 C 14.796875 -8.332031 14.65625 -7.425781 14.375 -6.6875 C 14.101562 -5.945312 13.738281 -5.34375 13.28125 -4.875 C 12.832031 -4.414062 12.316406 -4.085938 11.734375 -3.890625 C 11.160156 -3.691406 10.566406 -3.59375 9.953125 -3.59375 Z M 1.875 -19.40625 L 1.875 0 L 10.25 0 C 11.738281 0 13.03125 -0.25 14.125 -0.75 C 15.21875 -1.25 16.128906 -1.929688 16.859375 -2.796875 C 17.597656 -3.671875 18.148438 -4.703125 18.515625 -5.890625 C 18.878906 -7.085938 19.0625 -8.394531 19.0625 -9.8125 C 19.0625 -11.425781 18.835938 -12.832031 18.390625 -14.03125 C 17.941406 -15.226562 17.320312 -16.222656 16.53125 -17.015625 C 15.75 -17.816406 14.816406 -18.414062 13.734375 -18.8125 C 12.660156 -19.207031 11.5 -19.40625 10.25 -19.40625 Z M 1.875 -19.40625 "/></g></g></g><g fill="#000000" fill-opacity="1"><g transform="translate(222.597691, 347.769851)"><g><path d="M 1.875 -19.40625 L 1.875 0 L 16.609375 0 L 16.609375 -3.59375 L 6.140625 -3.59375 L 6.140625 -8.34375 L 15.546875 -8.34375 L 15.546875 -11.65625 L 6.140625 -11.65625 L 6.140625 -15.828125 L 16.390625 -15.828125 L 16.390625 -19.40625 Z M 1.875 -19.40625 "/></g></g></g><g fill="#000000" fill-opacity="1"><g transform="translate(240.207595, 347.769851)"><g><path d="M 1.875 -19.40625 L 1.875 0 L 15.609375 0 L 15.609375 -3.59375 L 6.140625 -3.59375 L 6.140625 -19.40625 Z M 1.875 -19.40625 "/></g></g></g><g fill="#000000" fill-opacity="1"><g transform="translate(256.322832, 347.769851)"><g><path d="M 1.875 -19.40625 L 1.875 0 L 6.140625 0 L 6.140625 -19.40625 Z M 1.875 -19.40625 "/></g></g></g><g fill="#000000" fill-opacity="1"><g transform="translate(264.339693, 347.769851)"><g><path d="M 10.90625 0 L 17.34375 -19.40625 L 12.9375 -19.40625 L 8.5625 -5.765625 L 8.515625 -5.765625 L 4.1875 -19.40625 L -0.1875 -19.40625 L 6.09375 0 Z M 10.90625 0 "/></g></g></g><g fill="#000000" fill-opacity="1"><g transform="translate(281.460431, 347.769851)"><g><path d="M 1.875 -19.40625 L 1.875 0 L 16.609375 0 L 16.609375 -3.59375 L 6.140625 -3.59375 L 6.140625 -8.34375 L 15.546875 -8.34375 L 15.546875 -11.65625 L 6.140625 -11.65625 L 6.140625 -15.828125 L 16.390625 -15.828125 L 16.390625 -19.40625 Z M 1.875 -19.40625 "/></g></g></g><g fill="#000000" fill-opacity="1"><g transform="translate(299.070335, 347.769851)"><g><path d="M 6.140625 -10.625 L 6.140625 -16.09375 L 10.828125 -16.09375 C 11.796875 -16.09375 12.523438 -15.878906 13.015625 -15.453125 C 13.503906 -15.023438 13.75 -14.34375 13.75 -13.40625 C 13.75 -12.425781 13.503906 -11.71875 13.015625 -11.28125 C 12.523438 -10.84375 11.796875 -10.625 10.828125 -10.625 Z M 1.875 -19.40625 L 1.875 0 L 6.140625 0 L 6.140625 -7.578125 L 10.40625 -7.578125 C 11.476562 -7.578125 12.25 -7.34375 12.71875 -6.875 C 13.195312 -6.40625 13.503906 -5.664062 13.640625 -4.65625 C 13.753906 -3.875 13.835938 -3.054688 13.890625 -2.203125 C 13.941406 -1.347656 14.085938 -0.613281 14.328125 0 L 18.59375 0 C 18.394531 -0.269531 18.242188 -0.597656 18.140625 -0.984375 C 18.046875 -1.378906 17.972656 -1.789062 17.921875 -2.21875 C 17.878906 -2.65625 17.847656 -3.082031 17.828125 -3.5 C 17.816406 -3.914062 17.800781 -4.28125 17.78125 -4.59375 C 17.738281 -5.082031 17.664062 -5.570312 17.5625 -6.0625 C 17.46875 -6.550781 17.3125 -7 17.09375 -7.40625 C 16.882812 -7.8125 16.601562 -8.164062 16.25 -8.46875 C 15.90625 -8.769531 15.472656 -8.992188 14.953125 -9.140625 L 14.953125 -9.1875 C 16.035156 -9.625 16.816406 -10.257812 17.296875 -11.09375 C 17.785156 -11.925781 18.03125 -12.914062 18.03125 -14.0625 C 18.03125 -14.800781 17.894531 -15.488281 17.625 -16.125 C 17.363281 -16.769531 16.984375 -17.335938 16.484375 -17.828125 C 15.984375 -18.316406 15.382812 -18.703125 14.6875 -18.984375 C 13.988281 -19.265625 13.207031 -19.40625 12.34375 -19.40625 Z M 1.875 -19.40625 "/></g></g></g><g fill="#000000" fill-opacity="1"><g transform="translate(318.691252, 347.769851)"><g><path d="M 6.90625 -7.5625 L 6.90625 0 L 11.171875 0 L 11.171875 -7.453125 L 18.375 -19.40625 L 13.625 -19.40625 L 9.109375 -11.75 L 4.5625 -19.40625 L -0.21875 -19.40625 Z M 6.90625 -7.5625 "/></g></g></g></svg>